/* XPM */
static char *a2790718f5f247a3f77da56e81171ce16VovZQYzoR3CtW7g[] = {
/* columns rows colors chars-per-pixel */
"64 64 77 1 ",
"  c #726A5F",
". c #7C6F5C",
"X c #7E715E",
"o c #746C61",
"O c #797166",
"+ c #7D756A",
"@ c #837663",
"# c #867966",
"$ c #80776E",
"% c #82796D",
"& c #8A7D6A",
"* c #857D72",
"= c #887E72",
"- c #8E816E",
"; c #878076",
": c #8D8373",
"> c #8D857A",
", c #8F887E",
"< c #928573",
"1 c #948976",
"2 c #908779",
"3 c #958B7B",
"4 c #998E7D",
"5 c #9B907E",
"6 c #958D82",
"7 c #988F82",
"8 c #979086",
"9 c #9D9383",
"0 c #9D948A",
"q c #A19585",
"w c #A29887",
"e c #A1978A",
"r c #A49B8B",
"t c #A99E8D",
"y c #A69D92",
"u c #A99F92",
"i c #A9A08F",
"p c #A7A096",
"a c #ACA294",
"s c #ADA49A",
"d c #B1A596",
"f c #B1A897",
"g c #B1A79A",
"h c #B3AA9C",
"j c #B9AD9E",
"k c #B9B09F",
"l c #B6ACA1",
"z c #B9AFA2",
"x c #BCB2A4",
"c c #BEB4A9",
"v c #C0B5A6",
"b c #C1B8A7",
"n c #C0B7AA",
"m c #C4BBAC",
"M c #C9BFAE",
"N c #C6BCB1",
"B c #C9BFB1",
"V c #C9C0AF",
"C c #CCC3B3",
"Z c #CEC4B8",
"A c #D1C6B6",
"S c #D1C8B7",
"D c #D0C7B8",
"F c #D4CBBA",
"G c #D8CFBE",
"H c #D7D0BE",
"J c #D9D1BF",
"K c #D8CFC0",
"L c #DCD4C2",
"P c #DFD8C6",
"I c #DFD8C8",
"U c #E0D7C6",
"Y c #E0D9C6",
"T c #E3DCCA",
"R c #E7E0CD",
"E c #E9E2CF",
"W c #EDE6D3",
/* pixels */
"X@##@X..@X@@@#@#@@#@@X@@@@@&&&&&&&5&5&5441=5454=q54596qq97ee9eye",
"@@@@@@#@@@&###@@&&&&&&&-&&-&&&&5&&&&&&5&14554q41=q5=39qqq6qqeeue",
"@@@##@#&@@###@&&#-&&&&#&--<<&&4&5&55&44&55494q1q=qqqqrtrqeeutyud",
"X@#@#&&##@&-&@@@@&&&&&&&<<&<4&&&5&5&&4451q=414qq5qtqre97qqeydyty",
"X#@@&-#@&--##&--&&&#&&&&-<<<&&&q455&554&4599q444qtqreee9eeeydyyy",
"@##@-&@@&&-&&---<<&<5&1&-<&<&44&&44455=554q5qq4uqqqrreeqyyeyeydg",
"#&&##&#@&#&#&&&<&<<51<4&<1<1<<1&44554q444q7q4qrqqqquutrtuuyusddy",
"&@&&#&&-&&<&-&-&&&&<&<&&1<<<&5<544&45qq&999q9qewrqruerruggeueyuy",
"&#&&&&&&<<-<11&#&&4&&5514&45&4454&5qq=ttq&tt9wrrteeqeuuyyeyuyuyg",
"###&&&&&<&<<<&<<&4&55&&54&555q5&4555q==q=tq5wewrtuuuddyguyyussug",
"&&#&&&&&1<<4<<1<15&&4&4&5115&555=qq55qt=q5tttqeuueuduuuyuuusssgs",
"&&#&###&--<<1<1<15q441545&&44455q5qt5ttqqqqterutteuuudysguugsggs",
"&&&&<&&&&<&&5-41&44514455555q5&&q5qtqqtqqtteyauryuutsygyssssslgg",
"&&&<<&5&&55<&&&14&&&15155554t&qqq55qtqqqqqatuutaugddlyggssslsglc",
"&&&11&&&151<1<1<&541&41554&555t5qqtqtqqqtquurruddygjsygsggslllcc",
"&&&&<1&5&&15111<&145&5515455qqqtqqqq=ttttttrauuudddgsggglllllsll",
"&&#<&-&1--<<<11-55111115qqq&ttqqiwiwrriiiirafapfguldllgllllzczcl",
"&&&<1<&&1<11511111155<15&q&qqqddwiwwiiiiiiaaafhagdlllslgzvczlnll",
"&<&&<<1<--1151-1111<1555qq&qt&d&5iwwirririipfaaaggjczlzlzzvzzcln",
"<<&&&&-<-111111155515555qqtqtqtqwiiiiwiipripfaifjgjczzzlvzccNcnn",
"----<---<<111<1115<55555qqttqqqqwwitiriiaiafpfahgjgvlvxxnvcvNnnn",
"--<--<1-1<51515115515155ttqqqtqditttriipfpaffffhlvlvvnvncnnncNnN",
"11-<<-11<<11111111555555t&qqqq=tdtidpiassfffkhfhjvnvvnlnccnNnNnN",
"11-<5<1<<511111555555155&qqqqqtqtdttaffafffflfxhlvvvnxnmnnnNNNNN",
"11-151-1111511<15555qq=5qqqttqtttittdtddhaffflxkkxkbmxMmBBNmmNBA",
"551<1151151511514115qtqqt55dtqtdddddddddfkkhhlkxbVxmmMCMBBBNBDDB",
"<15<<-qq555<15115415q=qqqqqqtqqqddddhaaafhhkhxcxxVcVMCCVBBDDAZAD",
"15155115551515q55555q=5qqqqttttttjddhhaahkxxkzxkxbmmVCCZBBBKDDDF",
"5115<51111515555555q55tqqqtqdtddijhdhhhhkxxxVxxVVbVVVCASDCZFDZAD",
"<51<15-55555155155qqq5qqqtqtqdtddhhhkhhkkkxhxxVxVbVVCVCSCZZDDDGL",
"55<<5q1155555q55555qqqqqqtqtddtdvdhjxkhkxxcxbbVVbVVVCVCSSJFZFKKK",
"15151qqq15q55qq5t555q4qqqdtdddddzjjfkxhhxcVxVVbVVVbVVCSSFGFZFFDK",
"51555551555555559ww599wiiiiiiddfvjjdjkvhxxxmbbVbVVAFAVSSSLGLLLYY",
"51115315555535ww5i9wrrwwii9iihffjjjjjjkkbvbbMbmVVVAFVASSJJLJLLYT",
"55555315i55355w55999rwwriwiiifdfjjjjhhjxvvvvmmVVVVSSVSJYJSYLJUTY",
"5131551555533555953iw9wwiiiaiadfjjvjxxkxbvmvbVAVASHFAJSLYJJLYETY",
"5515551555w5,w5ww509iw9r9iiidffjjvjvxvxvMmmMMMAMCASSFFJYLJJLYERY",
"55555535555ww55wii9i4iiiiiiihhhjjkjkxjxbvvMmMAMASFFFJJJLSLLLTTYT",
"5555,555,w5535w5w5i95iiifiafdgajvjkvvvvmvMMMMMMAFJJHJLJJJYTTTYEE",
"51355,5555558w5wi9wiiiifiiiaugjjvjvxxbcxMvMMMMAAFJJHJYJJYYYRYTRR",
"5533544555w55w8wwwirwrifeuugujdvvvMvbMvbMcCCMMAASSJJJLJYLYRRTYWR",
"55345523588w555w9rrwrriiradghgjzjvjvkVmmMcMMAAAFSSFFJLPPYLYYYTWY",
"595w9524ww3www8wrwwrrwirsaudddvvvvbvxxbxmmMmMMAAVSFJJJLLJFJYJYWE",
"555955593w585ww5998arwpryrrdgjvvjvbvcxcmmmmCvMMASSFJFHJLJFJYYJYY",
"5385555585555w990iiprrrrtyadjgglbvxvxvbmMmmCmCCASFSJHHLLJPJJTYJR",
"53555,555,,w0848wrirrrrrauaagjjvbbxbvxmcmmCmVAMCSSJJHJPPPJYWYYRJ",
"5,455,58558rw850r009wwrpgddggvvvvvvvbxmxxMNcVVVMCSJFHHJPPPJYREYR",
"5334359,385w95548955rpipdagadjgvmvjkxxxxmccmmmVAAASFJJHLJJJJRYJJ",
"5233,33335,ww,5,70e9yuyusgsgsggvzkkclcxccnmnNNNKVVCVSHLHHLHLPRLD",
",,,3,323,5585www0e7ereuyygsusvglzxxzcllxclcxcNmNVVSSSFFHLJFFLIII",
",533333,,335588,y9e90resussrgsglbkllllllllnnmmNcVVCJFSCJLHFHHHLT",
"132,3333,355,38w79000ryuruusssszxhlxhcxlhlllbccNbVVSHCDHHFFLHHKK",
",:2:132385,488,538808rp0rsssygsllhlllllllxclcNcckVCCCZDFFCSLHHLK",
"1::2::,3,4,35,5093999p0yuyguuslghsflllllxlcxccccVxmVmFCDFSFFHFPL",
",%2;;,,35,3,,50,8880000yuyyuusushshxhlhhllllllccmxxMmZVZHFHSFSLH",
"%*;:::3:3,,,,,58,8898000uyeyuuyplhhslspsphlhlcccxMxmVVNCDDCFHHKF",
";;2:;+,;>,,>>5,886888660000yyy0phlfhlsspsllsllllscccccNNVFVNDFKS",
"%;-;;-%-;>,;>,38686868688y0y0yppsspshplllppllllslslcccNNNCNCKHHD",
"%++>%;;;;>;:;,,,;;;,666880y8800yppppspssslspspppllcNZccNmNBZFCCZ",
"+;+%2;;>;;,:,>;,6886666;688y0yypppspppppsspslsllslcccccccCZZVCCm",
"%+%+;;;;+;;6;;>,66,868888860880ppy0yppyppspplllllllcccNccZNKZZCN",
"OO+%+;%%;+;;%>*>8;;++;;86666808800800p0yppspppppssslsllccccNCcNc",
"oO-*;*++;+;+%*>*,;;;;;6+666688888000080yp0ppppppppslslpccccccNNc",
"ooOOOOO++++OOO*%+;+;+++6++6;66688880088ypp0pppsp0plspsllllcccccN"
};
