/* XPM */
static char *b09f9680a48f404edc37452c8e8dbbb0llTR7NyfqEnLs9lY[] = {
/* columns rows colors chars-per-pixel */
"64 64 243 2 ",
"   c #040403",
".  c #0D0402",
"X  c #020A03",
"o  c #04050B",
"O  c #040A0B",
"+  c #0B0B0C",
"@  c #0B0907",
"#  c #120401",
"$  c #1A0502",
"%  c #150A04",
"&  c #1C0B03",
"*  c #130C0A",
"=  c #1B0C0B",
"-  c #1D060C",
";  c #0B1109",
":  c #17130A",
">  c #050A13",
",  c #0A0C13",
"<  c #080C17",
"1  c #160E12",
"2  c #0D131C",
"3  c #091214",
"4  c #131414",
"5  c #13141B",
"6  c #1C1B1C",
"7  c #191816",
"8  c #230A03",
"9  c #2B0C02",
"0  c #230D0A",
"q  c #210502",
"w  c #350C02",
"e  c #3B0E03",
"r  c #340B0A",
"t  c #291408",
"y  c #3C1205",
"u  c #33150C",
"i  c #3D1C0C",
"p  c #38160A",
"a  c #250E14",
"s  c #291817",
"d  c #331512",
"f  c #341B14",
"g  c #3B1C13",
"h  c #391818",
"j  c #1C2218",
"k  c #28221B",
"l  c #39241B",
"z  c #39210C",
"x  c #151B22",
"c  c #1C1C23",
"v  c #161A26",
"b  c #0E1720",
"n  c #251B23",
"m  c #351E26",
"M  c #1C222C",
"N  c #1A2125",
"B  c #1E2532",
"V  c #2C2326",
"C  c #23252B",
"Z  c #2A2A2B",
"A  c #262728",
"S  c #372929",
"D  c #39352C",
"F  c #232632",
"G  c #252934",
"H  c #2B2C34",
"J  c #2A2E3A",
"K  c #242938",
"L  c #352B36",
"P  c #2D3238",
"I  c #343434",
"U  c #34353A",
"Y  c #39383A",
"T  c #430E06",
"R  c #441206",
"E  c #4A1306",
"W  c #44150A",
"Q  c #4C150A",
"!  c #421C0D",
"~  c #4D1A0B",
"^  c #4B1906",
"/  c #51160A",
"(  c #541A0B",
")  c #5A1C0D",
"_  c #541606",
"`  c #441D13",
"'  c #4B1D13",
"]  c #471A16",
"[  c #531D12",
"{  c #5C1C11",
"}  c #581E1A",
"|  c #621B0D",
" . c #641F13",
".. c #44220E",
"X. c #4E210C",
"o. c #55220D",
"O. c #452212",
"+. c #4B2514",
"@. c #4D2915",
"#. c #4C241B",
"$. c #4E2D1A",
"%. c #45261B",
"&. c #532314",
"*. c #5B2314",
"=. c #522C16",
"-. c #5C251A",
";. c #532D1A",
":. c #5B2D1C",
">. c #552719",
",. c #55311C",
"<. c #5B331D",
"1. c #612215",
"2. c #61291C",
"3. c #62341E",
"4. c #60381F",
"5. c #472824",
"6. c #5D2C22",
"7. c #552A24",
"8. c #493527",
"9. c #553423",
"0. c #5D3422",
"q. c #5C3925",
"w. c #55342B",
"e. c #543B2C",
"r. c #5C3B2A",
"t. c #5A362A",
"y. c #463837",
"u. c #593A36",
"i. c #642C25",
"p. c #623523",
"a. c #633924",
"s. c #643C2A",
"d. c #683A2A",
"f. c #693B35",
"g. c #723C2A",
"h. c #39433C",
"j. c #5B402D",
"k. c #5A4638",
"l. c #50483E",
"z. c #63402D",
"x. c #6B412C",
"c. c #634332",
"v. c #6B4433",
"b. c #674739",
"n. c #754A37",
"m. c #67503C",
"M. c #745038",
"N. c #3C3D41",
"B. c #373944",
"V. c #2E3343",
"C. c #443C48",
"Z. c #3D4244",
"A. c #414444",
"S. c #4B4C4C",
"D. c #454749",
"F. c #4A4852",
"G. c #545253",
"H. c #5A595A",
"J. c #51504E",
"K. c #694B44",
"L. c #764E44",
"P. c #6A5647",
"I. c #785A49",
"U. c #725B56",
"Y. c #64655D",
"T. c #796758",
"R. c #7C604E",
"E. c #5C5C62",
"W. c #4F5261",
"Q. c #5C6264",
"!. c #646463",
"~. c #6C6C6B",
"^. c #686966",
"/. c #716E6A",
"(. c #72726E",
"). c #7C7168",
"_. c #737572",
"`. c #7A7A77",
"'. c #6D706F",
"]. c #5A645B",
"[. c #814D3A",
"{. c #845948",
"}. c #865550",
"|. c #886758",
" X c #926D57",
".X c #A37059",
"XX c #8B6E68",
"oX c #887869",
"OX c #997767",
"+X c #8B7C77",
"@X c #AA796E",
"#X c #7D817A",
"$X c #8E8476",
"%X c #B48A78",
"&X c #AC8973",
"*X c #C08E75",
"=X c #7B7C87",
"-X c #827F89",
";X c #7D808F",
":X c #898888",
">X c #94928A",
",X c #9A9899",
"<X c #8D8D8F",
"1X c #B69887",
"2X c #AD9187",
"3X c #B6A696",
"4X c #B2ABAD",
"5X c #9795A2",
"6X c #C8998B",
"7X c #C6A497",
"8X c #CFAC92",
"9X c #C6ABA4",
"0X c #D6B7A9",
"qX c #DCBAB4",
"wX c #C9B8B0",
"eX c #E8B9AD",
"rX c #E1A89F",
"tX c #DBC6B4",
"yX c #EBC9BA",
"uX c #F2CEB6",
"iX c #BABCCB",
"pX c #BEC0CD",
"aX c #D0CED1",
"sX c #E9D6C8",
"dX c #F8D9C9",
"fX c #E4DBD7",
"gX c #F9D8D2",
"hX c #EDCCC8",
"jX c #FEE6C9",
"kX c #FDE4DC",
"lX c #FCE8D8",
"zX c #FFF4D8",
"xX c #EEE3DD",
"cX c #FBEAE5",
"vX c #FFF3E5",
"bX c #FFF4EC",
"nX c #FFFBEC",
"mX c #FCF8E7",
"MX c #FFF4F2",
"NX c #FFFBF4",
"BX c #FFFDFA",
"VX c #F6F5F1",
"CX c #EBEAE9",
/* pixels */
"w.b.t.t.p.p.p.3.3.3.3.a.a.z.z.j.9.e.%.w.%.u.j.k.k.m.l.m.R.z.z.s.r.s.s.0.0.q.p.p.p.p.p.<.4.<.q.<.<.,.,.<.=.=.=.=.=.@.@...@.@.z ..",
"e.b.t.9.p.3.a.3.3.g.x.x.v.z.r.9.k.$.u b.i 8.l j.j.: j.m.c.m.v.a.q.r.q.q.q.a.d.s.p.p.p.p.<.p.<.<.<.<.,.,.=.=.,.=.@.@.@.@.........",
"e.b.r.9.4.4.x.3.3.3.3.<.z.j.9.j.t l z t e.5.5.P.k.t j.k.k.M.4.z.s.q.r.q.p.p.q.0.p.p.p.p.<.<.<.<.<.<.<.,.,.=.=.=.@.@.@.@.@.......",
"9.r.9.0.4.3.g.3.3.x.x.x.z.%.8 % k T.h.l S I.8.k.P.j 8.8.j.j.j.m.s.z.z.a.s.q.p.6.p.3.p.0.4.<.0.<.,.<.,.,.,.=.=.@.@.@.@.....@.....",
"O.9.9.9.j.4.a.4.<.x.z.j.c.$.t t : k D z : K.P.l R.k.j.l.m.j.4.=.z.z.z.s.s.s.p.p.p.p.3.0.<.<.<.<.<.,.,.=.=.=.=.=.@.@.@...........",
"i 9.,.<.4.<.4.4.a.4.,.q.k.k.l.T.h.: h.: l d T.K.$X$Xm.t %Xl M.M.j.s.q.s.p.q.6.s.p.3.0.3.<.<.,.<.<.,.<.,.,.=.=.=.@.@.@.@.@.......",
"z ,.,.q.a.4.4.4.z.4.j.c.k.8.j.l.; : : : # l K.+X$.oXz  X%XT.j.$Xc.z.r.s.s.0.0.p.4.p.4.<.<.<.<.,.,.<.,.,.=.=.=.@.+.@.@...@.......",
"..<.9.<.<.<.4.4.x.<.9.j.l % % ; ; j 7 k . u.K.w.m.k.$.3X#XM.I.R.M.M.v.v.d.p.0.s.p.4.4.4.4.<.<.<.<.,.,.=.,.=.=.=.$.....@.........",
"..,.<.,.<.4.<.4.4.9.j.e.e.: % % : j k t 8 g u.K.7.%.8.b.I.|.2XI.I.v.|.M.a.s.p.d.a.p.<.p.<.4.<.<.,.,.;.,.;.;.@.@.@.@.+...O.z O...",
"z ,.<.,.4.4.<.a.j.q.j.j.y.& % % % % & t u.c.w.7.%.w.OXt.|.t.L.OX;.9.OX{.s.d.q.6.p.p.p.<.<.4.<.,.,.,.,.;.;.;.@.@...+.+...O.O.....",
"+.,.<.,.<.<.<.p.4.<.z.j.8.& # % t u g ! r.f.7.g }.b.XXr.e.e.P.L.z.r.|.v.0.v.f.0.p.p.0.<.<.<.<.,.:.,.;.;.#.>.@.@.@.+.+.+.O.O.i ` ",
"z $.,.,.<.3.<.4.4.j.z.j.z & % & i 9 @. X}.}.L.s.&XK.K.P.U.3XcX|.,.a.OX{.d.0.a.s.a.p.3.p.<.<.=.<.,.;.;.;.$.@.@.+.+.+.O.O.! ! ..i ",
"O.,.,.,.<.:.<.p.q.q.r.w.t $ & t ^ ^ M.eX@X{.c.|.2X3XT.9X3XMXMX2Xc.9.{.{.v.0.q.p.p.p.0.:.<.<.<.=.,.;.;.;.@.@.#.@.+.O.O.` O.O.i i ",
"O.8.9.,.0.0.:.p.p.0.q.9.t & t u ^ [..X*X@X&X1XzXmXmXvXbXNXNXbX9X3XM.9.0.s.s.d.p.p.p.3.0.<.<.,.=.;.;.;.;.>.@.@.+.+.+.O.O.! ! i ! ",
"g $.,.;.<.:.:.p.p.0.q.w.9 8 t z x.*X.X[. XrXuXzXnXzXnXNXbXNXMXxXyX Xv.s.s.<.p.p.p.i.<.<.<.<.,.:.;.;.;.=.@.+.+.+.+.O.O.O.O.! ! i ",
"O.$.9.,.0.<.:.3.0.0.0.q.t u f l [.*X*X*X8XjXmXmXnXmXnXNXNXNXBXNXkX&Xv.r.x.s.s.0.3.3.<.:.<.<.:.,.,.;.>.=.>.+.+.+.O.+.O.O.i ! ! i ",
"z @.,.=.,.<.4.<.:.s.@.+.u 8 g u y %.j. XyXjXmXzXmXnXnXnXBXBXBXBXhXOXs.v.q.s.:.d.<.3.<.:.:.<.=.:.;.:.>.@.#.+.+.#.` O.` O.` ` ` ` ",
"z @.=.=.=.,.<.<.:.t.t.y 9 ` %.d p u 8.b.oX1XsXyXlXmXnXnXNXBXVXNXdX|.v.s.:.d.0.:.3.<.3.:.<.<.=.:.>.@.=.#.&.+.&.+.#.+.O.i y p w w ",
"..@.,.=.=.=.<.<.0.:.s.i w w.$.%.%.z t t m.T.$X&XvXtXdXmXNXnXNXmXdXM.v.s.q.d.p.:.2.<.3.:.=.<.:.=.:.;.>.>.&.+.' X.W ! y y w w w w ",
"i X.,.=.=.=.,.<.0.;.:...` w.5.` 9 u u p 9.9.k.tXjXR.T.2X1XwXsXlXyXv.q.s.d.p.i.d.<.2.3.:.3.=.:.:.:.>.>.&.O.X.W W e e e e y e w w ",
"y ..=.=.=.=.,.=.<.q.@.i W #.t.p $.z 9.$.z $.oXuXjX|.b.c.m.T.tXzX8X}.,.s.d.6.:.p.3.3.:.:.:.=.*.=.~ +.~ ~ ! R R y R y e e w w w w ",
"y ! +.@.=.,.,.=.$.j.@.w e 6.L.i.q.M.I.7.@.j.2XzXyXqX9X1X0X0XtXuX%X&Xq.d.p.d.p.i.2.:.:.*.&.o.X.X.Q Q E W W R R R R R R e R e T e ",
"y y ! ..@.$.$.$.$.<.;.! e #.}.|.6XzXlX&Xn.f.1XbXcXvXlXtXzXzXzX0X%X Xv.d.p.p.a.*.*.*.o.o.X.^ ^ ^ ^ Q ^ Q ^ E E W R T T R R T T T ",
"y y y i ..$.$.$.9.! 9.;.y y i.OX8XdXjX%Xs.6.0XMXMXcXNXnXmXmXmX$X%Xn.d.p.p.*.-.&.o.o.( / ^ ^ ^ ^ ~ ~ Q Q E E R T W R R R T T e e ",
"T e y y i ..@.,.,.@.$.,.+.y ] p.{.*X8X{.} i.7XMXMXMXMXBXBXnXNX4X1Xi.-.:.~ *.&.) ( ( ( ( ( ~ ^ ^ Q / / Q Q Q E Q E E E W E T T T ",
"R R W W R ! ..@.$.$.;.7.` e p ;.x.x.[.M.} f.-XMXMXMXBXCXBXBXNXcXOXi.:.:.[ -.[ { o.( [ ( ( X.X._ / / / / Q Q Q E Q E W E E T T E ",
"W W W y y W ! ~ @.#.,.7.` 9 u O.X.M.g.o.T } f.qXgXfXVXVXBXVXMXMXL.-.i.-.{ -.) -.) { { ( ( _ _ _ / / / / _ / ^ / E E E E E E E T ",
"W W W W W R R W O.' $.9.` 9 9 i ..x.4.o.Q } f.qXgXsXaXCXBXBXBXwXs.6.:.{ -.1.( *.{ ) *.{ ) o.o.( / ( _ Q / / Q ^ Q Q E E T E T E ",
"W W W ^ W ^ E T Q ~ #.%.g 8 8 t ..p y e T f.6XrXcXnXmXmXnXNXhXI.:.i.2.{ *.1.{ { *.| { ) o.) ) ( ( ( / / / ~ Q ~ Q ^ Q Q E E E R ",
"y R W ^ ^ E Q E R y W ] u 8 & 8 : z r r i.@XdXeXyXlXzXmXmXlXOXd.i.2.-.*.} 1.{ { { ) { { ) ) ( ( ( ( ( ( / / / / ^ Q Q Q W Q R E ",
"i i ^ ^ Q E / Q Q T p ] u & % % s h d h f.}.@X6X0X8X*XjXjXtXx.2.2.2.-.*. .} } { {  .) ) ) ) ) ( ( ( / ( / ~ ~ ~ ~ Q Q Q W Q E R ",
"R ^ ^ R E R E E ' W h p d 0 % # & 0 f 7.}.rXhXkXzXzXuXzX7X.Xx.1.-.-.1.1.} { 1.) | ) | | ) ) ) ) [ ( ( / / / ~ ^ ~ Q Q Q Q E E E ",
"/ ^ E R W ! ` ` g d d f f a & $ & s r p { [..XuXjXzXjXtX Xx.[ ~ W ' i. .}  .} 1.o. .| | | | _ o.) ) ) / / / ' Q ' Q Q Q ] Q Q E ",
"E E Q [ ' ` p u q q 0 s l s 8 # . = d d :.g..XuXjXjXjX&XI.:.f.i.! W -./  . .*.&.o.2.| |  .| ) o.) ) { { [ / Q Q Q ' Q Q Q Q E _ ",
"_ _ Q W ` i u q $ # . . # = % % # k K.|.1X6XuXjXzXuX8XT.M.z.s.f.] ` i. .i.-.&.~ X.*. .| | | o.o.{ { / { ) Q / ~ Q Q [ Q / Q E Q ",
"Q Q W W ] r q $ # # . . . % %     : V K.@X@XeXtXjX8X%Xm.m.M.i.b.w e 7.} } R y y ..*.} { | | | _ _ { { / / [ / / / Q Q Q Q Q Q Q ",
"T / } ] p r $ . . @ * @ X X X X ; * % 8.k.I.OXOX$XT.*X].8.z b.w.#.] i.7.i.7.%.%.l +.-.{ |  .o._ { ) ) / ( / / / / / / Q / Q Q Q ",
"Q ] ] r 9 q - = s 7 j 7 ; X X ;   @ # V f $.w.j.j.0XtXm.y.K.u.w.h r ] } f.u.l s f f #.i.*.1.| ) ) ) ) ) ( ) / / / Q / Q / / / Q ",
"] ] h r d a k A k N A Z Z 4 X X 3 + * . % : j $.&X#X$X3Xl.d d 5.g p 7.u.K.u.s = a 0 ] i.2.} *.o.) ) ( ( ( _ _ ( / / / / / Q Q Q ",
"h m 5.y.y.y.D S 7 X X ; 3 X X ; O X 6 = k D 8.8.#X#X#X#X_.S s y.l d 5.5.5.a * @ * . d 7.-.{ *.[ ) ) ) ( _ ( ( _ / / / / Q Q Q Q ",
"Y D h.G.P.S.J.G.G.N.N.4 6 O + + C A ; + : . s l.D D D G.Y.D Z s l f h f $ # , + 5 : d h i.i.] p.:.&.( [ ( ) ) E / / / / Q Q Q Q ",
"D Y l.S.S.S.S.h.S.S.H.N.S.Y I V A I Y A.S.D V D D S k I I V V n h l S h - * 7 + 3 7 0 h #.7.p.#.>.W p.:.R *.E *._ _ / / / Q Q Q ",
"h.h.S.S.Z.D.Z.h.U A.Q.S.!.!.Y.H.G.H.H.^./.].Y./.^.Y.!.^.I L Z V a m 5.h # = j 3 X + $ h K.@XyXqXOXf.7.! &.( ( ( | _ / / / Q Q Q ",
"h.h.h.S.Z.Z.Z.h.A N.Q.G.~._.+X`._._.^.^.(.`.:X,X,X:X<X`.Y Z S N.L y.y.m = N A j 7 ; a 0 U.hXvXbXkX3X7.O.d.~ -./ / / { / / / ] Q ",
"h.h.Z.Z.Z.S.S.Z.+ Y ^.Q.~.(.(.^./.#X(.#X#X_.#X#X>XE.+X+XH.L C.D.V s a a . . : ; X ; % d >XvXNXNXMXMXU.u.' >.[ { ( ( ( / / Q Q Q ",
"P l.D.Y D.].H.U X h.~.~.^.^.].#X^.(.(.#X(._.#X#X_.y.!.:X:X~.H.Y L n a a - - : ; j D 0 l.qXMXNXcXBXMX9X5.h 7.' *.) ) ( _ / / Q Q ",
"I h.C.Y S.'.Q.C b h.Q.#X^.Y.].'.(.).^.^.].(.>X>X+XG.G./.`.:X=XC.U n m m n a : X X j & k.wXbXNXcXMXcXkXU.w.#.6.[ ( ) ( ( [ Q Q Q ",
"I I I N.H.'.].C 3 Z.Q.#X].J.h.l.^.Y.^.Y.].].#X#X/./.J.!./.5X,XF.C.U y.C.y.L A : : ; s P.4XcXfXfXMXBXBXkXK.w.7.#.&.&.' { / / / / ",
"I I Z.Z.F.~.Q.Z.v J '.^.V.B K J L _.!.G.~.H.(.<X>X!.!.J.-X<X,XE.C.K C.F.y.Z 8.D : z 9.T.3XtXMXBXMXMXBXMXwXS S 5.5.5.#.} ) / _ | ",
"I h.A.H Y Q.Q.Z.2 G N.J K B.J N B.n F.E.!.!.H.:X:X_./.G.~.<X,X'.C.V.C.F.B.V 8.8.m.j.j.OXsXbXBXBXBXMXMXCXfXI L S m 5.5.] [ / _ _ ",
"h.Z.J.M C E.Q.B.2 C J K B.V.M K F B.B.E.S.Y H.~.:X<X:X`.^.<X<X'.C.B.C.F.S s h l z v.$X0XNXbXNXNXMXcXMXcXcXC.6 m S S 5.] ] ' _ _ ",
"Z.G.G.A v D.D.H 2 v J P K v K B.B.E.L L L C 4 6 S.].^.~.E.-X<X<XW.C.C.C.V s a d r.M.OX8XnXNXNXxXwXhXxXMXNX,XZ L m V m S 5.] ] Q ",
"Z.Z.S.M 2 J P F B v B K B.;XaXCXaXiXB 5 5   c 4 7 A Z U U H.'.-XC.C.V.C.m 5.h ] ..n.OX1XyXlXfXaXfXMXbXbXBXCXA 7 Z n V S S m ] 5.",
"Z.Z.B.N 3 5 M F v v K F.W.=XiXpX4X-X-XB.  5   + + + 4 7 c A U C.C.B.L L L S ] 5.' L.6X8X0XsXmXNXvXNXvXcXxXMXZ Z H A A H L S V S ",
"V.J J v > < b B K v 2 K B V.Q.=X5X4XaX_.5 o @     + + 4 c n c C V.m n n m h h ] W i.%XuXcXnXMXcXvXvXlXsXsXwX4 c U G C H L H V L ",
"B B K N > > 2 v 5 F v < 2 < b < < c V.5 1     o   ,   + o c 1 5 5 5 v - n a h ] ~ g.rXkXcXgXcXMXdXqX7XtXcX,X6 n B.H G G J F K H ",
"K K B v < > > 2 v v 5 < < , , , , o o o o o o o   o @ o o + , + > > > , @ - a ] ] i.@XeXeXhXqX9X2X7XqXcXMXy.1 6 A.F K V.B K V.F ",
"B B B M b > > 2 v < , , o , o o o o , o o o o .   . o o o + o o O o O O o # 0 d ] e i.@X6XyXkXMXvXgXgXcXMXu.1 c B.F J J v B V.K ",
"M B B M 2 > o < < , , o o o o o o o o   o               o @   o O X X o o @ - 0 ] ] f.eXcXcXcXcXgXeXqX9X9XS 1 n H J V.G < v V.V.",
"N M B v < > o O < , o o o o o o o o o o .                   o   X X X X X o - = h h w.7XhXhXgXhXhXqX2Xw.S . 1 U Z F V.H < < K V.",
"b b M x 2 O o o o O O   .       o o o           .             X X X X X o o o . # 8 d T.+XXX+XXXu.8.5.# 0 7 s 6 A A P P b o v B.",
"b b b x < o o o o o     o                     X       @       .       X X o O     % . 0 q - a a a - = % : 1 7 c N x B P v o 2 G ",
"3 2 b b < o o X o X               o           @                 . # *   X o O X   * . * # 1 # * % . # 1     4 x 4 3 x A c o o c ",
"3 3 2 2 > X o o O o                               X           . . & * o o o O X X @   . . *   * * @ . * X ; 7 X O 3 5 x 6 , o o "
};
