/* XPM */
static char *_88475c1857c4d20a79ccb445bf61f11kytjhYbnJwZow55l[] = {
/* columns rows colors chars-per-pixel */
"64 64 252 2 ",
"   c #070808",
".  c #06170A",
"X  c #16150D",
"o  c #080C12",
"O  c #0C1114",
"+  c #0C1619",
"@  c #121515",
"#  c #151A1C",
"$  c #171A18",
"%  c #140C06",
"&  c #241C12",
"*  c #17261A",
"=  c #082312",
"-  c #24221A",
";  c #2C251C",
":  c #2D291E",
">  c #30281E",
",  c #171C23",
"<  c #0C1622",
"1  c #1D2224",
"2  c #1D242B",
"3  c #1B2B21",
"4  c #1D2530",
"5  c #222424",
"6  c #2D2B23",
"7  c #252A2C",
"8  c #2B2D2C",
"9  c #242827",
"0  c #342D24",
"q  c #332E29",
"w  c #2B342B",
"e  c #34312B",
"r  c #3D352C",
"t  c #393529",
"y  c #292D33",
"u  c #2C3233",
"i  c #2B333B",
"p  c #333434",
"a  c #3C3A33",
"s  c #34353A",
"d  c #353A3C",
"f  c #3B3B3C",
"g  c #373835",
"h  c #302F37",
"j  c #423A2E",
"k  c #413629",
"l  c #433D33",
"z  c #433F3A",
"x  c #453B31",
"c  c #523E33",
"v  c #174430",
"b  c #3D403D",
"n  c #384739",
"m  c #2E4D3A",
"M  c #0C623B",
"N  c #464134",
"B  c #4B4335",
"V  c #44433C",
"C  c #4C453B",
"Z  c #4D4A3D",
"A  c #434A3C",
"S  c #524A3D",
"D  c #53473B",
"F  c #4F4D3A",
"G  c #2A3643",
"H  c #373C44",
"J  c #3C4245",
"K  c #3C444B",
"L  c #354347",
"P  c #3E4A51",
"I  c #2D7859",
"U  c #454543",
"Y  c #4C4A44",
"T  c #454B4C",
"R  c #4C4C4A",
"E  c #454747",
"W  c #544D43",
"Q  c #594E43",
"!  c #524E49",
"~  c #504541",
"^  c #4C5147",
"/  c #555145",
"(  c #5B5345",
")  c #55524B",
"_  c #5B554A",
"`  c #5D594D",
"'  c #5C5A47",
"]  c #454C54",
"[  c #4C5253",
"{  c #4C525A",
"}  c #455A53",
"|  c #545552",
" . c #5D5B53",
".. c #54595C",
"X. c #5C5D5A",
"o. c #565757",
"O. c #544F55",
"+. c #635B4D",
"@. c #615749",
"#. c #645D52",
"$. c #635F59",
"%. c #685E52",
"&. c #69544A",
"*. c #5E615D",
"=. c #5B6C59",
"-. c #4C6B52",
";. c #68624F",
":. c #666154",
">. c #6B6354",
",. c #65625B",
"<. c #6B655A",
"1. c #6E695C",
"2. c #6C6856",
"3. c #726A5C",
"4. c #736859",
"5. c #72715E",
"6. c #4B5564",
"7. c #555C65",
"8. c #535E72",
"9. c #5B6268",
"0. c #5A6575",
"q. c #4A7B65",
"w. c #636463",
"e. c #6D6A63",
"r. c #63666C",
"t. c #656A6D",
"y. c #686866",
"u. c #736D63",
"i. c #756E66",
"p. c #767164",
"a. c #7A7264",
"s. c #75726B",
"d. c #7C756A",
"f. c #7C7969",
"g. c #656C76",
"h. c #69727A",
"j. c #787877",
"k. c #6C736B",
"l. c #837B6C",
"z. c #827465",
"x. c #857D74",
"c. c #78836E",
"v. c #53A37E",
"b. c #26825D",
"n. c #8B847B",
"m. c #8A8477",
"M. c #928879",
"N. c #91917D",
"B. c #6D7582",
"V. c #6D7989",
"C. c #767C86",
"Z. c #737D92",
"A. c #7C838C",
"S. c #7A8288",
"D. c #7B8494",
"F. c #7A8798",
"G. c #6DBF99",
"H. c #71CEA9",
"J. c #878887",
"K. c #938D84",
"L. c #8D968D",
"P. c #999489",
"I. c #848A95",
"U. c #838C9B",
"Y. c #898D9B",
"T. c #838793",
"R. c #8A929A",
"E. c #989897",
"W. c #A49D96",
"Q. c #A6978E",
"!. c #A9A599",
"~. c #B3A99B",
"^. c #A8A990",
"/. c #848EA1",
"(. c #8692A4",
"). c #8B94A4",
"_. c #8B96AA",
"`. c #8D99AB",
"'. c #8896AA",
"]. c #919BAC",
"[. c #959AA5",
"{. c #8C9AB3",
"}. c #939EB2",
"|. c #929EBA",
" X c #9AA3AD",
".X c #9BA5B4",
"XX c #9CAABD",
"oX c #96A4B9",
"OX c #81BCA6",
"+X c #A7A8A7",
"@X c #B7AEA4",
"#X c #B9B3A8",
"$X c #A5ACB8",
"%X c #AAB2BA",
"&X c #B6B7B8",
"*X c #9EA39F",
"=X c #C5B7AB",
"-X c #C7BEB4",
";X c #ACC8AB",
":X c #C8C4B7",
">X c #D5C6B9",
",X c #C9D1B5",
"<X c #E2CFBE",
"1X c #9DACC3",
"2X c #98A9C4",
"3X c #A2AEC3",
"4X c #A4B2C5",
"5X c #ABB5C3",
"6X c #ACB9CC",
"7X c #A8B5CA",
"8X c #B4BDCA",
"9X c #B5BCC6",
"0X c #A8B9D2",
"qX c #B3BFD3",
"wX c #BCC2C9",
"eX c #BBC4D2",
"rX c #B7C4D5",
"tX c #AEC0D4",
"yX c #B8DADA",
"uX c #C6C8C9",
"iX c #D8CDC2",
"pX c #D7D2C8",
"aX c #C4CBD5",
"sX c #CACED3",
"dX c #C5CDD9",
"fX c #CDD1D5",
"gX c #CCD3DB",
"hX c #D3D5D5",
"jX c #D3D6D9",
"kX c #DADCDC",
"lX c #D6D8DA",
"zX c #CFD1CC",
"xX c #EBDCCB",
"cX c #E5D6C7",
"vX c #EADACE",
"bX c #E9E5D7",
"nX c #F3E4D5",
"mX c #F6ECDA",
"MX c #FCECDC",
"NX c #F9E7D9",
"BX c #F5F0D9",
"VX c #D6DCE4",
"CX c #C9D3E5",
"ZX c #DBE2E6",
"AX c #CAE0F8",
"SX c #E4E6E9",
"DX c #FDEEE2",
"FX c #FEF2E3",
"GX c #FFF6E8",
"HX c #E6EEF5",
"JX c #F0F3F5",
"KX c #D8E2C7",
/* pixels */
"f H s g d d d d d d r.A.D.D.I.I.I.Y.)./.Z._._.].}.|.|.|.2X2X|.{.{./._././.U.Z.D.Z.Z.C.B.B.j.r.[.cX<XnXMXGXFXFXDXDXMXMXMXMXNXnXnX",
"f f g s s s s H s h r.J.A.T.I.Y.Y.[.).].Z.Z._._._.].{.}.2X0X2X_.(./.D.T.Z.Z.Z.V.B.B.B.g.g.r.r.+XcXxXNXFXFXDXGXDXFXMXMXMXNXMXnXnX",
"s s s p e s s s f h r.T.T.T.Y.Y.[.Y.].]._.Z.Z././.(.).).7XHXqX/./.F.Z.Z.Z.V.B.B.h.g.g.r.O.O.O.+XcXxXMXGXFXGXFXFXFXMXDXFXNXNXNXnX",
"s d p p p s s s s h r.Z.D.Y.Y.R.).).].}._.Z.H G H H H H ] { ] ] H ] K 6.6.H T E K H K J K R f W.cXxXmXGXGXGXGXDXFXFXMXMXMXMXNXnX",
"s s d d H h u s h p r.D.T.U.Y.Y.).].].}.'.'.i + < o @ O 7 y @ o O O $ 1 5 O O   o , 1 @ O X % P.xXxXBXGXGXGXFXFXFXMXMXMXMXNXNXNX",
"8 8 8 u 8 f s d s h 7.T.T.U.Y.).[.`.].}.`.}.L 4 < , < @ 8 H 1 @ , 1 8 , 5 , o + 2 5 $ O % @ X W.nXxXBXGXFXFXFXFXDXMXMXMXNXNXNXnX",
"X.8 6 A V * 6 d J 2 7.T.A.U.Y.).).`. XXXoX{.K 1 7 < @ o , h # o 1 O.| R 8 $ O # , @   @ $ - - ~.xXxXBXFXGXFXFXFXFXMXMXMXNXNXNXnX",
"O.f _ pX:Xf.` ..] < { A.A.I.U.(.`.`.}.1X{.F.{ 4 h 4 4 5 7 H 7 1 5 J.+XJ.5 @ 1 # O @ # # 5 - @ @XxXxXBXFXFXFXFXMXMXDXMXMXNXNXnXnX",
"y w A ^.,XBX!.7 T , T S.S.S.T.I.`.]..XXX'.F.g.9.] { C.S.S.&X[.j.C.s.t.r.w...{ { [ 6.T 7 s e r -X<XxXBXFXFXFXGXFXDXBXMXDXNXnXnXnX",
"i L & ^.;Xc.| @ H , K S.S.S.C.D.U.}.}.1X{.F.6.4 , r.d 1 7 9.K i f H h f g 8 u y E 7.K 5 3 9 r :XxXxXBXFXbXbXnXFXMXFXnXnXMXnXnXxX",
"G L w f.A F 9.u K , L h.[ 7.7.B.).`.oX4X2X{.0.< 2 h.L + # $ # d %XX.X $ @ X $ @ s T s b =.g : :XcX<XBX<X,X>X<XBXmXcX>XcXcXxXxXxX",
"G i n n n A d 7 H 2 d k.f d f g.).'.oX4X|.F.9.i h C.T 7 d b n t.hXj.z r 0 w 6 5 8 o.s X.,.- n pXKXBXMXBXxXcXBXGXGXvXcX>XxXFXDXxX",
"y + @ $ * = = * * * 3 w u u 7 { (.}.}.1X2X_.6.G H h.[ H E *.n w.T u E $.R z u p H [ J u 8 w A :X:X,X,X>X:X-X#X+XW.W.Q.Q.P.x.P.iX",
"2 7 8 $ X = v m 3 * 3 * m L m 7.R.'.}.1X1X1X7.G H T.9.[ o.k.J.A.b 9.t.w.o.O.f f J ] H 7 p d b Y A n g w g : = . $ % %   % % D vX",
"9.7.s. .A = b.H.v . . = v.OXm P F.`.oXXX4X0XB.G i r.T ..r.j.j.L.K h.j.j.e.| s p b T H u u w  .L.m q.m * - = I I * - 6 q c Q.iXvX",
"h.9.x.i.^ . M H.v . . . q.OXL P g. X`.1X7X6XB.H H h ..h.T J.t.S.w.j.t.c.s.Y q d H f h y n w y.L.-.yXm . . . G.v.= $ ~ <.M.nXvXcX",
"g.*.z.z.Q t m m =.n n n A =.^ E } [.R.oX1XoX0.A.C.H P B.h.u *.9.} 9.9.k.X.J y h s s 3 7 w 9 *.^.-.c.v * 6 3 q.-.= % c u.P.vXcX<X",
"J.K.M.4.>.( m.F P.;.F F ' m.,.!.k. X XoXXX'.`.4X$XV.V.T.S.d 9.L.7.*.| 9.| s u s { t.L w p A L.m.5.c./ +.` p.N.;XN.m.a.z.Q.xXcX<X",
"4.a.x.;.2.( 5.F N.+.+.S ' 5.' @Xg.[..X.XXXXX$X.X$X%X5X%X5X&X$X X[.%X+X+X*X+XR.*.j.j.k.t.J.L.!.t 2.c./ :.:.d.^.,X>X>Xm.4.~.xXcXcX",
"&.c z.z.3.a.5.+.N.;.+.( ' z.A U o.A.R.]..X9.h. X$Xg.h.V.S.0.L.wX X*XL.L.J.j.t.....T d J }  .m.S 2.f.F 1.) 1.^.>X>X=Xz.a.~.cXcX<X",
"&.D ;.z.4.l.p.' M.;.;.%._ d.~ 7 { C.T.).u , < F.r., H H ] T ..R.E.9.T J p w 5 u 5 h 9 g f 5 m.M.5.4.B +.C C ^.>X=X=Xl.3.=XNXcXcX",
"z.x.z.4.+.#.p.' M.2.;.;.+.i.! H 7.D.U.`.3 i A.'.].7 + ] P } ] S.L.T T *   w # 9 o O 5 p s 1 J.z.a.a.B / t a ^.>X=X+.4.:.Q.DXGXGX",
"> M.K.4.` / p.' m.;.&.2.+.a.! s { Z./.`.U.< 0.%X3XU.G y C.F.F.$XwXL.S.9.# 8 [ T T , + E E 9 K.z.z.;.N C 6 l !.:X#X0 %.#.q x w.K.",
"% & C p.+.Z p.' m.2.+.2.@.3.W 6 O.9.8.B.6.G o 6.P P d   { oXF.7XgX XR.I.7.o E T H u   2 ] u P.5.z.;.N l 6 a ~.-X@Xk e.( % X X X ",
"#.O.%.u.` ` 2.' f.3.' >.@.4._ J.j.9.6.8.H 6.G g.< 4 L G B.|.{.0XZX$X].} P < i 4 o # + 4 P K !.p.l._ j z - l ~.#X:XP.3.D t & % X ",
"+X+XP.3.` Z +.' a.5.( 1.( +.~ #Xg.T.).oX4XoX6X.X< 8.2X{.2X2X|.tXHXwX%XR.B.h.B., 4 B.9.9.7.S.N.j l.~ k r - z ^.#X#XQ.4.B @X-Xx.~ ",
"&X&X@X1._ ( >.S 3.3.W #.~ >.~ L.j.).XXV.V.V.D.oX}.'.|.{.2X0X2XtXAXtX'.F.F.B.Z.8.8.A.h.0.0.A.c.0 z.C r 0 - C ~.~.@XN.4.x =XvXvXiX",
"+X+X~.i.( p.2.;.3.<.S #.( #.! j..X3X4XoX}.(._.3XtX0X2X0X0XAXtX6XwXwX].F.B.V.Z.U.F.F.S.B.h.j.E.+.f.c r 6 - C ~.@X#XP.>.k -XcX-XiX",
"W.W.Q.u.W i.3.f.a.2.C %.#._ ! T.}.$X3X0X'.F._.6X0X1X4X4X0XAXqX0XeXdXCX].Z.D.'.(.(.F.F.S.B.h.W.,.a.N 0 : - / @X~.#XK.&.x >XiXiX-X",
"E.P.K.d.W e.1.3.a.:.B ` ` _ Y T. X|.4X4X0X0X1X1X1XXXoX|.2XCX0X4X8XeX9X X(.(.).(.).F.D.V.B.B.!.%.i.l 0 0 - _ @X^.&Xn._ c iX>X<X>X",
"R.L.J.i.! w.<.1.4.;.B ' _ ` R J.$X3X5X4X4X7X4X2X1XoXXX1X2XrX0X3XwXVXVX9X.X.X`.`.(.F.F.C.h.C.E.%.u.j w w - ` @X~.#Xx.&.~ >X>X>X-X",
"W.E.P.d.! $.3.2.2.;.B ' _ ` E Y.%X5X5X8XqX0X4X3X3X4X4X3X2X0X0X3XeXHXHXeX.XoX`.}.'.).F.D.B.S.E.#.3.j t 6 - %.@X+X=Xx.&.c >X<X>X>X",
"+X+XW.j.! :.1.,.2.>.N _ +.` ~ R.$X9X8X8XqXqX6X5X7X5X7X3X7X6X7X5XwXVXZXaX$X.XoX`.[.].Y.T.Z.J.E.#.3.j e 6 - 3.@X~.#Xl.~ @.>X=X-X-X",
"$X+X%Xx.! ,.p.+.>.;.l ( _ #.! E.wX9XqXeXwXeXqX6X9X6X8X8XeXrXdXeXeXCXVXfX%X$XXX$X X[./.Y.T.Y.E.#.<.C q 6 6 3.@X~.#Xd.c %.iX=X-X-X",
"&X&X#Xj.W 1.p.` 2.+.l _ _ +.Y [.uX8XeXdXaXaXdXdXaXdXdXaXCXCXCXgXsXHXHXjX9X5X6X%X$X}.[.E.R.[.Q.` 2.a a 6 - a.@X!.-Xd.z <.-X=X-X>X",
"uXwXuXJ.W <.s.) ;.+.j ( _ ` C +XsXuXsXdXsXaX8XeXaXdXsXeXaXdXCXjXfXVXZXhXuXwX8X9X%X%X$X}.*X*XQ._ >.N r q : f.@X!.#Xd.c d.-X=X=X=X",
"&X#XuXP.W #.s.) :.;.j ( +.+.A +XjXfXfXsXfXfXuXuXwXwXsXsXgXsXgXVXsXjXkXlXjXgXdXsXwX&X&X#X+X+XP.+.2.l a 0 : n.iX:XiXi.x K.NXnXcXvX",
"&X&XuXK.W 1.d./ +._ N ( +._ C +XkXfXhXhXhXfXsXsXsXsXfXsXfXVXVXVXhXlXlXhXsXuXuXuXuX&X%X%X%X+XP.' #.N l 0 6 :.d.l.P.%.z $.x.x.x.x.",
":X&X:XK.Z :.f.^ B N t ( ;.' Y E.kXhXhXkXlXhXhXjXjXjXhXsXjXZXSXZXkXkXlXuXuXzXuXuXuX:X&X%X@X+XP.( >.r X : - l ( #.x.$.x j ~ z ~ c ",
"zXzXzXK.W / p./ F j j ( :.( C P.hXhXuXuXwXuXfXhXlXkXkXkXSXJXHXHXkXhXpXuXzXzXuXfXhX:XuX&X@X+XK.` +.r ; : ; z ` <.d.` a z &.Q ~ Q ",
"&X@XuXP.S ( u.! D B k F ;.( C e.*X&XwXwXuXwXhXkXSXkXkXSXJXJXJXJXbXSXbXSXSXbXkXkXpXpXuX:X+XJ.x._ %.k ; ; 6 C / e.u.! j z _ ) Q ~ ",
"! ) $._ Q W Y Y F B k ' ;.S C ! #.r.r.r.y.r.j.j.C.J.J.R.E.W.E.E.J.J.J.n.J.c.j.j.j.j.s.t.w. .d.) +.k ; ; - N _ ` _ _ e W #.) +.@.",
"a a r l / B r Z ' Q B S &.( S t 8 H s H H R O.O.| ..X.X.7.w.*.X. . .O.! R U Y A Y f f J f 8 z ` +.B x > t ~ _ Y C +.q ! #.O.#.&.",
"V b V C S B N W S ' B ' @.S / e H U U U ~ X.O.w.*.X.*.*.w.y.e.t.y.w.w.$.X.) | ) [ ) R Y R z 6 C +.D D ; t C / / Y _ 0 W _  ._ ) ",
"V V U N S B N C S +.+.&.+.W C z b f V f R O.o.$.X. .*. .,.,.9.,.w.w.w.$.o.| [ ^ ! Y R U U V g C +.D @.k r C Z W D Q 0 ! O.O.Q Q ",
"V A C C ( B r C Q 4.N.( _ Q C r g g f z O.O.X. .X.,.*.,.*.w.,.w.*.,.w.$. .o.| ) ) Y R Y U U z Z >.%.D m.( _ C N C D 6 W ) Q &.( ",
"g r g t S B C / S M.+.j @.k W a e g s p f g U U R R ! | o...O.O.[ ^ O.R E U ~ ~ U V V z a N a ;.D &.D ;.<.i._ Z l C 6 W | _ @.&.",
"6 6 0 : C C l B >.z.D m.@.& e e 6 q e p p g a f f V f U R R T E A b z f z p p e e q q 8 e e 6 r & Q N.&.%.#.p.C x C 0 C ~ ~ C ~ ",
") '  ./ B D k +.l.F &.z.N 0 t x V z ! $.$.e.e.i.s.e.s.s.j.j.j.s.s.u.w.,.,.:. . . ._ ) / _ ` W j S k M.l.+.>.>.>.B l : C l l l z ",
"1.:.:.:.F B D m.( B 2.S t B ~ C ~ W $.w.e.s.s.j.j.x.S.n.x.J.x.x.d.j.d.s.e.e.e.1.$.:.,.,.<.1.:.#.4.;.B M.Q @.#.a.W l > l a l a z ",
"/ / S / B x +.a.j S 4.t r l l V V Y #.#.$.#.$.<.$.w.e.u.s.s.s.e.e.w.,.,. . .| ) W ) ) ! ) / W W D D k 4.z.S 4.+.W l > l j a x l ",
"S F / Z B B @.&.k 4.;.0 l a l C C )  .$.<.$.$.$.$.<.e.e.s.s.e.e.e.<. . . .` _ ) ) ) / ) / ) ) W D D D k n.%._ 4.B l > j r l l l ",
"( ' F S B B B B Q d.x k j l z l W  .` $.$.,.,.,.w.<.u.e.e.e.e.e.e.,.$.#.` ` ` ) W ! ! W W _ W Q S Z S B +.M.+.4.Q r :.C j x z j ",
"F / @.F B B k B i.@.q l a l l V !  .#.$.#.$.#.<.$.<.w.e.e.s.e.e.e.$.$.X. .`  ._ ` _ _ _ ) ) _ _ ( S W S l d.l.S D k @.n.r x x l ",
"_ S S 5.;.F F @.i.c x z N a V Z _ #.:.:.:.,.<.,.e.w.u.e.s.s.e.e.e.1.$.$. . .` |  .` _ _ ! _ _ ) ` ) / / S ( M.%.Q D c l.u.0 x j ",
"( ( @.M.z.&.S 4.$.l a l a N N / #.%.1.:.<.:.,.<.e.1.u.s.s.s.e.e.e.w.<.%.:. . . ._ _ | _ ( _ _ ( / F / S W C i.i.%.C a.Q x._ 0 r ",
"( ' 4.M.M.a.%.+.c a l z l l C ` #.>.,.#.,.>.1.<.<.e.e.s.s.s.e.e.e.1.<.,.#.#. . .` ' _ _ _ _ _ _ / W / W W S ( 3.%.D i.4.+.Q.S j ",
"&.;.;.4.2.&.B k r j j a j z / #.#.>.>.>.<.:.3.:.e.e.u.p.s.s.e.e.e.<.,.<.<.$.#.#. .` ` ` ` _ _ _ _ _ _ ( _ ( Q S D D C D x 4.P.j ",
";.' &.;.' ( B k r j x x S ` >.2.2.>.>.>.1.<.<.3.1.1.1.e.u.u.u.e.e.%.%.1.,.:.#.#.#.` +.`  .+.+.+.' _ _ _ ( _ _ Q W D Q D Q x M.K.",
"' &.' ' &.' ( S ~ Q _ +.#.2.<.>.%.#.%.>.<.<.<.<.1.1.1.u.s.s.e.e.4.e.w.:.:.:.:.X. .` _ _ _ _ _ _ _ W Q ( _ _ _ ( ( ( ( ( ( Q S z.",
";.2.;.;.;.>.>.;.;.;.2.2.4.3.<.<.>.2.<.i.a.3.u.u.u.u.i.d.d.d.d.i.u.d.i.1.<.:.<.>.:.#.#.+.` +.+.@.@._ _ +.+.+.+.( ( ( @.#.@.@.Q D ",
";.;.;.4.>.4.4.4.4.4.2.4.2.4.4.4.3.3.3.a.i.u.u.1.e.3.a.d.d.d.d.d.d.d.a.3.e.1.1.1.1.>.#.#.#.#.#.;.+.>.+.+.+.+.+.+.+.+.>.#.+.+.@.@.",
"4.;.;.4.>.>.2.2.2.4.4.4.4.>.3.u.3.3.i.4.4.4.4.3.u.i.d.d.d.d.d.d.i.d.3.i.u.<.:.1.<.<.>.%.+.%.%.%.+.%.+.+.%.+.#.+.+.#.%.%.%.+.@.+.",
";.;.;.;.>.;.4.;.4.2.2.2.>.4.4.4.3.3.3.3.3.3.3.i.a.d.l.l.d.d.l.d.d.d.p.i.i.u.u.u.3.1.<.>.%.%.:.%.+.>.:.#.%.:.:.+.#.#.%.<.%.%.+.@."
};
