/* XPM */
static char *_0d474687bb34425bd4a0f075c926366roTwdZT6zNDt6emn[] = {
/* columns rows colors chars-per-pixel */
"64 64 83 1 ",
"  c #CECED1",
". c #CDCDD0",
"X c #C5C4C9",
"o c #C0C0C5",
"O c #BDBDC2",
"+ c #BBBCC1",
"@ c #BABBC0",
"# c #BCBCC1",
"$ c #BCBDC2",
"% c #BEBEC3",
"& c #BEBFC3",
"* c #C4C4C8",
"= c #C5C5C9",
"- c #C7C6CA",
"; c #C6C5C9",
": c #C8C8CC",
"> c #C6C6CA",
", c #C2C2C7",
"< c #C2C2C6",
"1 c #C3C3C7",
"2 c #C5C4C8",
"3 c #C4C3C8",
"4 c #C1C1C5",
"5 c #C8C7CB",
"6 c #C3C2C7",
"7 c #C4C3C7",
"8 c #CACACD",
"9 c #C9C8CC",
"0 c #CFCED2",
"q c #CECDD1",
"w c #BDBEC3",
"e c #C7C7CB",
"r c #CBCBCE",
"t c #CCCCCF",
"y c #CAC9CD",
"u c #BFBFC4",
"i c #C9C9CC",
"p c #C0C0C4",
"a c #C1C1C6",
"s c #CDCCD0",
"d c #C6C5CA",
"f c #C9C9CD",
"g c #CBCACE",
"h c #C2C1C6",
"j c #CCCBCF",
"k c #CFCFD2",
"l c #D0D0D3",
"z c #BDBEC2",
"x c #C8C8CB",
"c c #D1D1D4",
"v c #BBBCC0",
"b c #BFC0C4",
"n c #C7C7CA",
"m c #D0CFD2",
"M c #D2D2D5",
"N c #D3D3D6",
"B c #CACACE",
"V c #CBCBCF",
"C c #D2D2D4",
"Z c #C0C1C5",
"A c #CECED2",
"S c #BBBBC0",
"D c #D0CFD3",
"F c #BCBDC1",
"G c #BFBFC3",
"H c #CBCACD",
"J c #CFCED1",
"K c #D4D4D6",
"L c #D4D4D7",
"P c #D5D5D7",
"I c #D5D5D8",
"U c #CCCCD0",
"Y c #CECDD0",
"T c #D3D3D5",
"R c #D1D1D3",
"E c #D1D0D3",
"W c #D6D6D8",
"Q c #D7D7D9",
"! c #D6D6D9",
"~ c #D8D8DA",
"^ c #D2D1D4",
"/ c #C9C8CB",
"( c white",
/* pixels */
" .XoO+@#$%&o*=-;*:>,<1=1*-222*2323>2<o41;55-=617-89212><63;;;3<=",
"0q*ow@@@@#o=;e;-:rtr>e3;ye--2*e9;*=7uu3-5-9ie==;yy9-,7-;-5y5-9r.",
"y>pou@@@@@O2ao&u>rs9;d2=fgf9ee--2*h162:gg5555-->595;6a*5jt9-5gkl",
"X<%$$++z+@$au*a<=eg51*;1=;129xXee1&a75iy8i5=*XX;--5y9*15jk ryglc",
",1a%%&vO%up*==---=g-*7aa226h2;;>1o%bhe99i89;222;;nirj9;yq.sy8mMN",
"-*,pOu$+O1x-6<*11d95;X1<1=,o<3X<o<ouo;:y9x5--;;--999ry-8.gx5Blll",
"uuo&wz$+4=;*4p41<2=;2;;e>5-2*;3ba>=<6;;5ii9-d5-5xjsst9-5yry8t.lc",
"121<<apb77<oubp&o4<2;-595fe;*71u<4<$3ex-5x-X2--5ikktryiyy999V mC",
"46=*=1&p*<6<OuZ44oh<6X;-5e=361*<=14p-999555>;-5:gk tjj. tggy8tkc",
"b*=*3346<633o&O#Ouuu4461*31*3o732;;;-5595--->=-5.k k . k kk 0kcM",
"<7<1412<u444z@@@@%uu&ou<-5:gy:==155--5555----;5is Akk  qt k  lll",
"44<1;i3upo4ou#@S$wOo<1u4iygtt.f62:i5x9i9555955yrt lllk s.kllkDkD",
"+o66=g2oop<<&@O$F+w41<u*9i8yyjti5-9-e955959ggj.s. lllk0 kDllllk0",
"@4=1->*1a431awp&O@vG16u3*15-yygjHi-3-55x95yq.   0kkclllllccllk t",
"&1=*-;71<<*11ah4z@+u<hz7X>9ygrgjrg9xir.Jk.t   kkk.. kk. kMMll j9",
"Z2;=>-X3612161hu#Ouo1,4*d-9rgy9ygyfBtjkcck0 . kk.sr..q.sqcckl ri",
"15xe:e=*737711<bOooo**2;5-59ygg8yffigtklclllkkk .. q . t k  0 8x",
"=jtg95=2****131ouao633;--;>5y8yyy59yj.klCCcMllkk q sq.q.k s.0.85",
"*yg95-17**371h4opo412X=X;;5988jrgx9r0kllMMccllkkk .. sj kk  kk.i",
"<yy5;=h<11<<<ub%uo<1*7<1;d5iyggrjy58.lMKMMlllllk  q  .. k   lkk ",
"Xn5=1aoo<<4uopubb<X2711<X>-5iy8rr858.lLPMKMlllllk..kkk ..trsklll",
"*1;1<u%o4oobo<ouo6*=71<*;d-555gjtgit 0MMlcCllllkk..0kk tjjgj lcM",
"u<1ou$Ou%Ou66<<4a172223**=-55-ij..ss  kkkkllllkkk kkktjjtg8y cNN",
"#b<4u@@+$#u1<ap%o<3*171132-5559gjs..q k0kk kkk  Dkk0.jrsjygyslcc",
"+$u4oO@@F+zpzOO++wb<<1112=-x59y9gs8tk lk qqkkk00kklk.ttjgB8yjkll",
"@F&b+@@S$OOo$+&F%bh16113X;-99y85959tk k k .kkllk.lllk.rr..jj.lll",
"@#++@@@@+$$&$#$$%o44a6,3;;5y99y555ys.s q 00 k kkkllDkstjr.stqklC",
"@+@@@S@@++#%Oz%%zu4<16<*==-9999555gtj0k0 kk lkklk kllqjjj  t lMI",
"@@@F++$OO+@$%$O#+Opo<<41;=->-e5955iirqs..0 t.q k.s0kk  ..   klKL",
"@@+$+++wF@+%w+Oz$+%4<a41*232;;;;-55-irgrtk.....q.q. kk ..k qklCM",
"+++$#@+wu%oz$#Ouz$u1X21*2==;;-------9iiyr.tjs.q ..t.k qs.kkqklcl",
"@@@@@@@$u%z##Oup&wp122*2*;---------59i8rj.tgrss....   .q kl kkll",
"@@@@@@@+++$#+uo&p%zo*22;=;;----55--559ytgjjygj.rgtq q.. kk0 kDll",
"S@@@@@@+$+$%O%obG&Ob3;X;;-----595-e9xi8ggjjjsjst8tj. 0  0   k kl",
"v@@@@@+O$+Oo%F%u%&uh3*;--5-559555-e999y8igj...kkqq. 0k0 qk . 0Dk",
"+@@@@Fu4z@+%Ow&&&$&<7*;;-55559599--xygg8yj.q.kllkq    0 q q kkll",
"+@@@#Fbh$@Op%up&uwG<2X=1;5555xx5y9-5gtUstYkk t.Dkkk .s.q... lllc",
"@@@@@@$O+@$z&%%Owpp<22=*;-55-55--e59j. ..k0  s lk kkk q  q0 kkll",
"@@+OwF@@@v+$+O%F+uuh**;=2-555555-59ygt jg DllkklDkkl s   kk  klc",
"S@SOz$F@@@$%Fwu&uo44<<;;2d-5555555588gjs. lllllllkkk qqk kk0klcc",
"@@@F@@@@@@Fu%u%&o1376<*=;>555e5--55xyyt.kkcllllllk.. .qkkk0kklll",
"@S+$$F+@@@$z%p%ba*23111;--55555-5-5555. klllclllll . .    q. lll",
"@+%u%+@@@@$%$&b4h61631*;------55--n95xrkkllklDlclllc0kk  k   0lc",
"@@S+O+@++Ouub<<aoo41*3;;------55---5--y.qkllllllklklDlkk0Dkk klc",
"@@@@FOzpG%+u1*37ou<7*32;;------5----5;:8t 0lllkkklk   kkklllDllc",
"@@@@@#uoopp<11<a<p1*663*=;;--555555---5yr 0lllkDllk   0kklMclllM",
"@@@F++uou1*66116*2**2111=>---5555555-5y.q klllllllkk 0lclCMMllcN",
"@#O%F$uu47ao<aa62=23772=;-----n5i9x5n-itqqkllllclkklkklllllccTNN",
"@&4&O&4161<a164<12*23*X;;-----55y9x5-ig...kllllclkklllclllllMLMN",
"@#uz%<1**2au773<<7***312;--5n5-5y5-55gtq. klllklllkkkkklllcMNNNK",
"@+%w4*7*31oo71*1**3*7<<2;----5n55--5598t  0cllllkkk  kDllccMKNMM",
"O&u6X3***<&<13<67672*72;d-5x55555---9igj.  0k 0k  k..llllllMMMML",
"%44*=>=<11667**22*=;X;=;-55555555---559iyyj k.. k0kkDcclcccRllcK",
"p46X3=246666111*31222X;;-----5x5x--5555e-9qk.rgr.. DkllkEcCcccMW",
"h<***7*66111166*7723222=d----55599x5-n555yjj:555y8rqkkq qkllMMLL",
"a1=;*2;7671733332XX2;;2;;;---n5---55--58j9x5-;;55irs tt..jslPLQ!",
"a125;*;;2***2=2*;;=X;;;--;--5-55--n---5x9995-;>--8s 0s. t.kcTI~Q",
"7;>;=>x-e-;;;;;-->d;------------>5---;--59y5-;37-jj.kllNM^NKKWQQ",
";592=>>---;;222>=d-;--;---5555-;;5--;12;------;*-/yt kkNNTKLPLQ!",
"=-5yf5;-=*=;2*32*;-;>-->---55----d-->=X;;-d-5->-5x9tt. ccccMMNWL",
"a;eBg5>=;2=;2=2*7*;;--=37625955--=----;;;-555e-9y9g.qkklcTNNTIIL",
"<;-->=*e95;-;;;;;22--*3>27259995-;----;;-555;=9ry99gs kllcNKNNNT",
"a*-=;;>55n;-555995--;b1>e,;595x55--555nn55e-55ir8ygj.sskkkllllkk",
"<-r922XX;;-599y895-->1;1,%egg999x-5yy9iyi59y8rjtrrts..s...klllk."
};
