/* XPM */
static char *b186bb51e37549e1c939b99101cace06v6MgVCxDui3yVXbo[] = {
/* columns rows colors chars-per-pixel */
"64 64 151 2 ",
"   c #71675D",
".  c #7B6E5B",
"X  c #7E715E",
"o  c #766C62",
"O  c #786E64",
"+  c #7B7167",
"@  c #7D7369",
"#  c #827562",
"$  c #867966",
"%  c #81776D",
"&  c #85796C",
"*  c #8A7D6B",
"=  c #857C71",
"-  c #897F74",
";  c #8E816E",
":  c #8D8273",
">  c #8D8479",
",  c #928574",
"<  c #958876",
"1  c #91877C",
"2  c #958A7B",
"3  c #998E7D",
"4  c #9B907E",
"5  c #958D82",
"6  c #998F82",
"7  c #9D9283",
"8  c #9D958A",
"9  c #A19686",
"0  c #A29789",
"q  c #A59A8B",
"w  c #A99D8E",
"e  c #A29791",
"r  c #A59D92",
"t  c #AA9F91",
"y  c #AA9F99",
"u  c #ACA294",
"i  c #ADA49A",
"p  c #B1A596",
"a  c #B1A79A",
"s  c #B6AD9E",
"d  c #B7AE9F",
"f  c #B5AC9D",
"g  c #B4AA9C",
"h  c #B8AC9E",
"j  c #B9AD9F",
"k  c #B9AD9E",
"l  c #B9B09F",
"z  c #B1A6A0",
"x  c #B5ABA1",
"c  c #B7ADA1",
"v  c #B6ACA2",
"b  c #B7ADA3",
"n  c #B5ACA1",
"m  c #B8AFA0",
"M  c #BBAFA1",
"N  c #BAAEA0",
"B  c #B9AFA3",
"V  c #B8AEA2",
"C  c #B8AEA4",
"Z  c #B9AFA5",
"A  c #B9AEA2",
"S  c #B9AEA8",
"D  c #B9B0A1",
"F  c #BBB2A1",
"G  c #BAB1A2",
"H  c #BCB0A2",
"J  c #BDB1A3",
"K  c #BCB3A2",
"L  c #BAB0A4",
"P  c #BBB1A5",
"I  c #BCB3A4",
"U  c #BEB2A4",
"Y  c #BFB3A5",
"T  c #BCB2A6",
"R  c #BDB3A7",
"E  c #BDB4A5",
"W  c #BEB5A4",
"Q  c #BEB5A6",
"!  c #BFB6A7",
"~  c #BDB2A4",
"^  c #BEB4A8",
"/  c #BFB5A9",
"(  c #BEB4A9",
")  c #C0B4A6",
"_  c #C0B7A6",
"`  c #C1B5A6",
"'  c #C1B8A7",
"]  c #C0B7A8",
"[  c #C3B7A9",
"{  c #C0B6AA",
"}  c #C1B7AB",
"|  c #C2B7AA",
" . c #C1B8A9",
".. c #C2B9A8",
"X. c #C3BAA9",
"o. c #C4BBAA",
"O. c #C5BCAB",
"+. c #C2B8AC",
"@. c #C3B9AD",
"#. c #C4BAAE",
"$. c #C5BBAF",
"%. c #C6BDAC",
"&. c #C7BEAD",
"*. c #C7BEAF",
"=. c #C5BAAC",
"-. c #C8BFAE",
";. c #C9BDAE",
":. c #C6BCB0",
">. c #C7BDB1",
",. c #C6BCB1",
"<. c #C8BFB0",
"1. c #C9BFB3",
"2. c #C8BEB2",
"3. c #C9BEB1",
"4. c #C9C0AF",
"5. c #C9C0AF",
"6. c #C9C0B1",
"7. c #CAC1B0",
"8. c #CBC2B1",
"9. c #CAC1B2",
"0. c #CBC2B3",
"q. c #CDC4B3",
"w. c #CCC3B4",
"e. c #CDC4B5",
"r. c #CEC5B4",
"t. c #CEC5B6",
"y. c #CFC6B7",
"u. c #CDC3B3",
"i. c #CFC5B9",
"p. c #D0C6B6",
"a. c #D1C8B7",
"s. c #D0C7B8",
"d. c #D1C7B8",
"f. c #D1C8B9",
"g. c #D2C9BA",
"h. c #D3CABB",
"j. c #D4CBBC",
"k. c #D4CBBB",
"l. c #D8CFBE",
"z. c #D7D0BE",
"x. c #D9D0BF",
"c. c #D8CFC0",
"v. c #DCD4C2",
"b. c #DFD8C6",
"n. c #E0D7C6",
"m. c #E0D9C7",
"M. c #E3DBCA",
"N. c #E8DFCE",
"B. c #E7E0CE",
"V. c #E8E1CF",
"C. c #E9E2D0",
/* pixels */
"# X # $ $ # . . . # # # # # # # # # $ $ # # # # # $ * * * * * $ * * * * 9 * - 9 < < < < 7 3 3 < 3 6 6 < < 9 9 3 9 9 3 3 e 9 e 9 ",
"# # # # $ $ # # # # $ $ $ $ $ $ * * * * * $ $ * * * * * , * * , * * 3 * * 3 3 * 3 < 3 3 7 9 3 3 < 6 6 6 3 9 9 9 9 9 9 9 9 w w w ",
"# # # # $ $ $ ; # # $ ; ; $ # # * * ; * * * * * ; < < , < < , , < * 3 3 3 * * 3 3 3 3 3 7 9 7 7 , 3 6 9 9 e e 9 9 9 e e w w w w ",
"# # # $ $ * $ $ # # $ * $ $ $ # $ * * * * $ * * < ; ; ; * , , , 3 < < * * 9 - 3 3 3 3 3 3 3 3 3 9 9 9 e 9 9 9 9 9 9 9 e w w w e ",
"# # $ $ * $ $ # ; ; ; ; ; ; ; ; * * * * * * * * ; , * * , , , , 3 9 * 9 9 9 * 9 3 3 3 3 3 3 3 9 e 9 w w e 9 9 3 w 9 e w y p w w ",
"# $ $ * * $ # # ; ; # ; $ $ ; ; * , * * * < < * , , , * * , , , 3 - 9 * 9 - 9 * 3 3 9 9 9 9 9 9 9 9 e w w 9 9 9 w w w w p y p p ",
"$ $ * * * * $ $ # ; # $ $ $ $ ; , * * , 3 < 3 * < < , , < , < < 3 * 9 3 3 9 3 * 9 9 9 9 3 9 9 w 9 7 9 e w w 9 w p y w w p y p p ",
"$ * * * * * * ; $ $ ; ; ; ; ; ; , * * , * < 4 * < , < < < , , < * 9 * * 9 9 9 - 9 3 9 3 9 3 9 9 e 9 9 e w e 9 w p w w 9 9 w w w ",
"; ; # ; ; # ; ; , , ; < < ; ; ; * 4 * * 4 * 4 * * < 3 < 4 * < < 9 - 9 * 3 9 9 9 9 3 9 9 9 9 0 w w q 0 0 w w w w w w y y y y p z ",
"$ $ # $ ; ; # ; , , , , < < ; ; * 4 4 * * 4 * 4 3 < 3 4 4 4 4 4 3 9 9 9 3 3 3 3 9 9 9 9 9 9 w 0 u t q w t t y p e y w w w y y y ",
"$ $ $ ; # # ; ; , , , , < < < < 9 * 4 4 4 9 * * < < < 3 < < 3 < 3 3 9 3 9 3 9 3 9 9 9 9 e w w w w r t t p u y w y y y y y y p p ",
"; $ $ # ; ; ; ; , , ; , ; < < < * 9 * * 4 * 9 4 < < < < 4 < 9 * 9 9 9 9 9 9 9 9 9 9 w w w w w w q w t t u t w w p y p z p p z z ",
"; * * ; ; ; ; ; ; < < ; < < < , * 4 * 4 < < < 3 4 4 3 4 4 4 * 4 9 3 9 9 w 9 9 9 9 e w w w w w w q u u u y p w p y p p z z z h h ",
"; $ * , < ; ; ; < ; < < ; ; ; , 4 * * 4 < 3 3 4 4 4 4 < 4 4 9 9 3 9 9 9 9 9 9 w 9 w w w w y p w u u i i p p p z y p z z h h S S ",
"* * ; , ; ; ; < ; < < < < ; < < * 4 < < < 4 4 3 4 < < 3 4 4 9 4 9 9 9 9 9 9 9 9 w 9 w w w y w y u i p p p p h z z z z z z z S S ",
"* $ * , < ; < < ; ; 4 < < < < < 4 * 4 < < < < 4 4 4 3 4 9 9 w 9 9 9 9 9 9 w w 9 w w w e w w p w u u p u w p p z j j h h S h h S ",
"$ $ * * , , * , , ; : < < 2 < , 3 < 3 3 2 3 3 < 4 4 - 9 9 w w w p p 4 4 p 4 f 4 q q u u p p u u u u i f f s s f I G C I Z T C n ",
"* * * , , , < * , , , , 2 2 < , 2 < < 2 < 3 2 3 9 4 w - 4 9 9 w 4 4 p p 4 l 4 p r r u p i i p i i f f f f f f f T G G T T T I C ",
"* * ; * * < < * , ; , < < < < < < < 2 2 3 3 3 6 4 4 4 4 9 9 9 9 4 p 4 4 p 4 4 l r w u u i f p p f i f f m s f f T T T T ! ( T Z ",
"; * * , < , , < , , , < < 2 < < 3 3 3 3 4 4 7 9 4 4 9 9 9 9 9 9 4 4 p l 4 p p 4 r w w u u u u u f f l l m m m m T T T T ( / ! T ",
"< * * * * < * < , , < < < < < < 4 4 3 6 7 7 7 7 4 9 w w w 9 9 9 p 4 p p 4 p u p w u u u u p p p f f m G I E E I ( ( ( / @.,./ / ",
"< * < - < * < * ; < < < < < < < 3 - 3 3 3 3 3 4 9 9 9 9 9 w 9 w w p p 4 f 4 4 l p a i i a g f f f f G I _ ] ] ] ( ( ( / ,.,.,.,.",
"3 - < * * < < - ; < < < < < 3 < - 4 2 2 3 3 3 3 4 9 9 9 9 9 9 9 w p p 4 4 l u u f f f f g g g h l l K _ ] ] ] ] / ! / ,.2.2.<.,.",
"4 4 * < 3 < < 3 ; < 3 4 < 3 < < 3 4 3 3 3 3 3 3 4 4 4 4 9 9 9 4 l p w p u u u u i u f u g g g h l W _ _ ] ] ] E / ( / / 2.6.6.<.",
"3 3 * < , < , , , < < < < 3 < < 4 3 3 3 9 9 - 4 9 9 9 9 9 w w w w w u p p w p p p g g h h h k k l K W ! ....X...e.6.6.*.*.6.e.e.",
"* 4 4 4 < < < 3 3 < 3 3 3 < < < 3 3 3 3 4 7 9 4 9 9 w 9 w w w w p p p p p p p p g g p h h h k ) K W ..X.X.5.5.5.e.6.6.6.6.6.e.y.",
"* 3 4 3 < < 4 4 4 4 3 3 < 3 4 4 3 7 3 3 7 9 7 4 9 9 9 9 4 w w 4 p p p p p p p p h g g h h k ) k ! ..X.5.7.7.q.7.6.6.6.6.e.y.y.s.",
"3 * 3 3 < < 3 4 3 < 3 < 3 4 4 4 3 3 3 7 4 7 7 9 9 9 9 9 w 9 w w p p p p f f p p h h h M k ) ) ) ..X.X.5.5.q.q.q.6.6.e.e.s.g.s.s.",
"4 3 < < 3 3 3 < < < < < 3 4 4 4 7 7 3 3 7 9 9 9 9 9 w w w p w p p p h p f f p f M M M M U ) '  .5.X.5.5.5.7.q.r.6.6.y.s.g.j.g.j.",
"4 < , < 3 4 < < 4 4 3 3 < 3 4 4 7 7 9 4 7 3 9 9 9 9 4 w w p p p k p h k k f f k U M M ) ) [  .o...X.X.X.5.q.q.r.s.y.s.g.g.j.j.c.",
"4 3 < < 3 3 3 4 4 4 4 4 4 4 4 4 3 3 9 7 4 7 9 9 9 9 9 w w w p p k k k k k k k k U ) ) ) [ X.5.o.5.X.5.5.5.q.y.s.g.g.g.s.s.j.c.j.",
"< < 3 < 3 4 4 4 < 3 4 4 4 4 q 4 9 9 9 3 4 7 9 q w w p p p p p p h k k l l l k k ) ) ) [ [ X.! 5.5.5.X.5.7.r.y.s.j.j.g.s.g.j.c.c.",
"4 3 3 4 4 4 3 3 < 3 9 9 9 4 4 4 w 4 4 4 4 4 p 4 w w w w w p p p M k h h k M N h ` ` H ` ` ;.;.;.;.;.a.a.;.q.p.p.p.l.l.n.l.l.n.n.",
"4 3 < 3 4 3 2 3 3 4 3 4 4 4 9 9 4 w 4 w 4 p 4 p w w w w p p p h M N k h k N N k ` ` ` ` ` ;.;.;.;.;.p.a.q.r.p.l.l.l.l.n.n.n.n.n.",
"4 3 2 3 3 < 3 3 0 9 4 2 2 4 9 9 4 w w 4 p 4 p 4 w 4 w w w p k p N k M k k k M ) ` ` ` ` ` ;.;.;.;.p.p.p.p.p.l.l.l.v.n.x.n.n.n.n.",
"4 < < 3 4 4 < 3 0 9 2 2 3 4 4 9 4 4 4 4 p 4 4 4 w p w w p p p k N ) ) ) N k N ) ` ` ;.` ;.;.;.;.p.p.a.a.a.a.l.v.v.l.l.n.M.M.n.n.",
"4 4 3 4 4 4 3 4 9 9 3 3 9 4 9 9 w w 4 w 4 p 4 4 w 4 p p w p h h h ) ) ) ) k ) ` ` [ [ [ ;.;.u.;.l.p.p.a.l.l.v.n.x.l.l.v.M.M.M.M.",
"4 4 4 4 9 4 3 4 4 4 3 7 4 4 4 4 w 4 w 4 4 p p p p w w p p h h h M M M ) N ) ` ` ;.[ ;.;.;.;.u.d.p.l.l.a.l.l.v.n.l.l.x.n.n.M.M.M.",
"4 3 3 4 4 4 3 4 4 7 9 7 4 8 4 8 4 w 4 w 4 p p 4 p k p w p p p h ) ) ) M ` [ ` ` [ [ ;.;.;.;.d.;.l.p.l.a.l.l.x.x.x.v.n.n.M.M.M.N.",
"4 3 < 3 4 3 3 3 3 4 9 4 4 4 9 q w 4 w w 4 p p p p 4 p p p p h h ) M k ) [ [ [ ` [ [ ;.;.;.u.;.d.p.l.l.l.l.l.l.l.v.n.M.M.M.n.M.N.",
"4 3 2 4 4 2 3 4 2 7 7 8 7 6 7 9 w w w q 9 q w p 0 q u p u p a h ) ) ` [ =.[ =.=.;.;.;.;.d.d.d.d.q.a.a.l.x.v.n.M.n.M.M.n.n.N.N.N.",
"4 3 2 4 3 < 2 2 6 7 7 7 8 7 8 9 w 4 w w 9 9 q p w t p p a h h h ) ) ` [ [ [ [ [ =.;.;.;.;.d.d.d.8.a.a.l.x.x.v.v.v.n.n.n.n.N.N.N.",
"4 4 4 4 4 2 2 3 8 7 6 6 8 8 8 9 4 w w 9 0 9 q w w t u g h h ) ) ) ) ) ) ) [ [ [ [ ;.,.;.d.u.d.d.q.a.l.l.l.x.v.v.l.x.v.v.b.N.N.N.",
"4 3 3 4 4 3 3 9 9 6 3 6 7 8 8 4 4 9 9 w q q w w w w t p p h h ) ) ) ) ) ) [ [ [ [ [ [ ,.;.;.;.p.r.a.a.l.l.l.x.v.l.l.x.v.v.m.m.m.",
"4 2 2 7 9 3 4 9 7 6 2 3 6 9 9 6 9 9 w e w w q w w w w u i f D D ) ` ) ) ) [ [ [ ,.[ [ ;.3.3.3.d.a.a.l.l.z.x.v.v.z.z.v.b.b.b.b.b.",
"7 3 3 7 3 3 3 3 3 6 6 6 6 9 6 6 e w w q e 9 q q u u u p f m D Z [ [ ) ) ) ` [ [ ;.;.3.;.1.1.d.d.a.l.l.x.x.z.v.v.b.b.b.M.M.m.b.b.",
"4 3 3 3 7 < < 3 6 6 7 7 9 6 7 3 9 9 0 0 q w w w a p u p a l G G [ [ ) ) ) ) ) [ ;.;.;.;.3.3.3.d.r.a.l.l.z.z.v.v.b.z.b.M.M.b.b.b.",
"2 < < 3 6 3 3 9 - 6 9 0 e 7 3 9 7 7 3 9 9 e w p g p p u a l G D [ ` ) M M ) ) ) [ [ [ [ ;.;.3.3.q.q.a.l.z.z.z.z.z.z.z.b.M.b.v.m.",
"6 2 3 2 2 2 2 4 2 5 5 5 8 8 2 5 5 5 8 8 r r r u i i i f i f f f n n n n G Z ! Z ( ! (  .,.,.w.w.r.8.;.8.g.j.v.v.v.c.k.x.M.M.x.k.",
"< 1 1 1 1 1 2 1 2 5 4 8 5 8 2 8 8 8 8 8 8 r r r u u i u i f f f G G G n G G Z Z Z S ( ] @.@.,.,.8.8.8.a.j.j.c.j.m.v.k.k.v.n.n.v.",
"5 2 3 1 2 1 2 2 5 5 5 5 8 5 8 2 8 8 8 8 8 8 8 r u u r i i i f f T Z Z G D D D D C C E ( ( @.@.@.%.8.a.k.j.j.g.g.v.l.j.l.x.x.n.n.",
"2 2 2 2 2 4 5 2 5 1 5 5 4 5 5 8 5 8 5 5 8 r r u r r u u i f f f C C G Z C b n n C C Z S ( ( @.@.' 5.a.a.g.y.f.g.w.g.j.x.x.x.l.l.",
"> > > > , 1 2 2 5 5 5 1 2 5 5 8 5 5 5 8 8 r r r u u u u f i f f n n n n n n n n m C Z E Q ]  .@._ O.5.p.p.p.g.j.5.r.k.l.x.l.k.l.",
": : : > , 1 2 2 1 2 1 5 1 5 5 5 5 5 5 8 8 r 8 8 u u r u u i i f i f f n f f n f f D D Z Q Q (  ._ ' o.;.;.8.f.j.k.k.k.a.l.l.x.n.",
": : : > , 1 2 2 2 5 5 1 5 2 4 5 5 5 5 8 8 8 8 r r r r r r u u u i i f f f f i i n n n D Z Z I Q ' _ _ o.;.9.t.e.x.k.a.k.k.x.v.n.",
"& ; ; @ : : > > 5 1 2 1 2 4 5 5 5 5 5 5 5 8 8 r r r r r r r r u f f z f f i i i f i f n n Z Z n ' W W X.;.9.9.&.a.a.k.l.x.x.k.k.",
"- - 5 - - - - > 1 5 1 1 1 5 5 8 8 5 5 5 5 8 8 8 8 8 r r 8 r r i n i i f f i i i z z i f n C n n u z ( ,.( ,.,.0.5.%.&.8.g.x.l.k.",
"% = = = = = - - > > > > > > 5 5 > 5 5 5 5 5 5 5 5 8 8 r 8 8 r y i i i i i i i n f i i i i i i i g b ( ( / / ( ,.5.5.w.y.j.j.j.j.",
"= = = = - - - - - - > > > > > > > > > 5 5 5 5 5 5 8 8 8 8 8 r r i r i i i i i n i i i i i i i i x b ( ( ,.,.( / X.;.w.t.t.t.t.t.",
"= % % - - > > - = > > > > > > > 5 > 5 5 5 5 5 5 5 5 8 8 8 8 8 r r r r y r r r i i i i i n n n f g z x ( ( ,.,.,.) ;.w.i.1.>.>.>.",
"@ @ @ % - - = % = - > > > > > > 5 5 5 > > 5 5 8 5 5 5 8 8 8 8 8 8 8 8 r r r r y i y i i i z z z a z x Z S ( ,.( ( ,.1.c.w.2.>.2.",
"+ @ % % = - = % = - - > = = > > 5 > = > = > 5 5 5 5 5 5 5 8 8 8 8 8 8 8 r r 8 r y i r r i i i i i z z x x x S S ( ( ,.1.>.,.,.,.",
"O @ % = % % = % @ % = @ @ = = - > = = = = = > > > > > 5 5 5 5 5 8 8 5 8 8 8 8 r r r r r r u y r y z z z z z z S S S S ( ( ( ( ( ",
"o o @ @ + + + @ @ @ @ @ @ @ @ = = = = = = = = = > > > > 1 5 5 5 8 5 8 8 8 5 8 8 8 r 8 r r i u u e y i i i z z S S S S S ( ,.,.( "
};
