/* XPM */
static char *_85fa4e2_a080_471c_9980_cde8ef3752461682097034[] = {
/* columns rows colors chars-per-pixel */
"64 64 238 2 ",
"   c #3A3D38",
".  c #373A2F",
"X  c #413D3A",
"o  c #3A423C",
"O  c #43443C",
"+  c #48483E",
"@  c #604B3A",
"#  c #383F42",
"$  c #3C4649",
"%  c #3E4D55",
"&  c #4A4A44",
"*  c #434A4D",
"=  c #4B4C4B",
"-  c #464645",
";  c #534D4A",
":  c #534E45",
">  c #57524A",
",  c #444D52",
"<  c #4C4E52",
"1  c #4B5254",
"2  c #4C555B",
"3  c #49555A",
"4  c #545454",
"5  c #5A5453",
"6  c #5B5B5D",
"7  c #565959",
"8  c #4E514B",
"9  c #694846",
"0  c #66584B",
"q  c #635B54",
"w  c #6A5C55",
"e  c #635C5B",
"r  c #665956",
"t  c #785B56",
"y  c #77594C",
"u  c #5F6159",
"i  c #64635D",
"p  c #6B655B",
"a  c #6D695E",
"s  c #696355",
"d  c #78665A",
"f  c #7D644D",
"g  c #4B5A66",
"h  c #535D64",
"j  c #585E66",
"k  c #635D60",
"l  c #566163",
"z  c #5C656C",
"x  c #5A6569",
"c  c #5B6A73",
"v  c #6D6C64",
"b  c #6D6E6B",
"n  c #656666",
"m  c #726C62",
"M  c #726D6B",
"N  c #796963",
"B  c #6E716A",
"V  c #6F7166",
"C  c #7C7266",
"Z  c #73736C",
"A  c #7C746B",
"S  c #787568",
"D  c #636D74",
"F  c #6C6F71",
"G  c #6A7475",
"H  c #64737B",
"J  c #6C757B",
"K  c #6B777B",
"L  c #747572",
"P  c #7B7B74",
"I  c #737B7D",
"U  c #7C7D7B",
"Y  c #797673",
"T  c #825D57",
"R  c #83635D",
"E  c #87675A",
"W  c #91705C",
"Q  c #876964",
"!  c #887669",
"~  c #987868",
"^  c #847D74",
"/  c #8B7D74",
"(  c #897B79",
")  c #937D73",
"_  c #987C77",
"`  c #906D66",
"'  c #A47D6D",
"]  c #A37D73",
"[  c #7E827B",
"{  c #7A817A",
"}  c #98816D",
"|  c #868175",
" . c #8B8175",
".. c #83847C",
"X. c #8C857A",
"o. c #8C897C",
"O. c #938275",
"+. c #92857A",
"@. c #9B847B",
"#. c #93897D",
"$. c #9B8B7C",
"%. c #9C8574",
"&. c #938977",
"*. c #A58472",
"=. c #A48B7C",
"-. c #A68777",
";. c #B28C79",
":. c #AB8D79",
">. c #6E7B82",
",. c #697884",
"<. c #737D83",
"1. c #7A7E82",
"2. c #717F89",
"3. c #758185",
"4. c #7A8285",
"5. c #75828A",
"6. c #7A858C",
"7. c #7D898D",
"8. c #7F8887",
"9. c #7D8790",
"0. c #7D8A92",
"q. c #7F9191",
"w. c #848483",
"e. c #868A83",
"r. c #8A8C84",
"t. c #8B8D8A",
"y. c #85898A",
"u. c #948C82",
"i. c #9A8D82",
"p. c #958A87",
"a. c #8D928D",
"s. c #8D9087",
"d. c #9C9285",
"f. c #93948C",
"g. c #9C948A",
"h. c #989689",
"j. c #828D94",
"k. c #838F99",
"l. c #859196",
"z. c #8B9394",
"x. c #85929A",
"c. c #8A959C",
"v. c #8D9A9D",
"b. c #939B9D",
"n. c #989896",
"m. c #A48C84",
"M. c #AA8C83",
"N. c #A48B88",
"B. c #A39385",
"V. c #AB9384",
"C. c #A2958A",
"Z. c #A4998D",
"A. c #AB9B8C",
"S. c #AA968A",
"D. c #B39C8C",
"F. c #B79786",
"G. c #A59B93",
"H. c #AB9C92",
"J. c #A69B9A",
"K. c #B59C95",
"L. c #9DA29E",
"P. c #B9A38C",
"I. c #ADA294",
"U. c #A6A19A",
"Y. c #B4A494",
"T. c #B4A49B",
"R. c #BAA899",
"E. c #ADA08F",
"W. c #8D9AA2",
"Q. c #8798A0",
"!. c #929DA4",
"~. c #959EA6",
"^. c #95A1A5",
"/. c #9BA4A6",
"(. c #95A2AA",
"). c #9AA5AC",
"_. c #9DA9AC",
"`. c #9EAAA6",
"'. c #9EABB2",
"]. c #96A9A8",
"[. c #A2ABAD",
"{. c #A7A6A5",
"}. c #B3A3A2",
"|. c #B8ABA5",
" X c #B9B2A9",
".X c #A2ADB3",
"XX c #A8ADB0",
"oX c #A4B2B5",
"OX c #AAB3B4",
"+X c #ABB5BB",
"@X c #AEB9BC",
"#X c #A5B2BA",
"$X c #B3B9BA",
"%X c #A8B0AE",
"&X c #C49C88",
"*X c #C5A18D",
"=X c #C7A997",
"-X c #CCB49B",
";X c #D3B39B",
":X c #C4AEA5",
">X c #C9B8A8",
",X c #D6B8A6",
"<X c #C6BCB5",
"1X c #D4BDB6",
"2X c #B8C1BF",
"3X c #D8C1AD",
"4X c #CAC2BB",
"5X c #D8C8B8",
"6X c #CDC0AF",
"7X c #E5CAB7",
"8X c #E1D0BC",
"9X c #ADBAC1",
"0X c #B3BEC3",
"qX c #BABFC2",
"wX c #B5C1C4",
"eX c #BBC6CB",
"rX c #BAC5C8",
"tX c #BECBD1",
"yX c #C7C8C8",
"uX c #D4D1C8",
"iX c #C2CED3",
"pX c #C6D3D4",
"aX c #CBD5DB",
"sX c #CBD6D9",
"dX c #D8DAD9",
"fX c #D3CBC6",
"gX c #ECD5C9",
"hX c #F7E9DA",
"jX c #D3DEE3",
"kX c #CFDBE1",
"lX c #D8E4E7",
"zX c #DEEBF1",
"xX c #E6E9EA",
"cX c #EAF5F8",
"vX c #F4FDFE",
"bX c #FBFEFF",
"nX c #F3F4F6",
"mX c #EFF1ED",
/* pixels */
"@.$.$.@.$.$.d.S.Z.A.H.T.R.|.|.R.K.S.i.=.@.( / / ! ( ( ( ( ( _ ( ( ( 1.1.1.I 1.<.2.1.2.2.6.6.w.6.j.j.y.j.k.k.z.c.c.n.!.~.n.~./.{.",
"%.@.$.%.%.$.d.B.B.Z.H.I.T.R.R.T.Y.A.B.i.p.) / / ( ) ) ( ( ( ( ( U Y Y 1.1.1.1.1.6.2.6.1.1.1.4.6.9.j.9.j.k.k.z.c.c.c.c.~.~.~.).[.",
"O.%.%.+.&.$.d.B.C.Z.Z.H.T.R.T.R.T.H.B.d.@.( / / ( / ) ( ( ) ) / ( U Y ( w.1.1.2.5.5.5.3.4.5.6.6.9.j.y.9.k.p.c.c.c.c.~.~./._.XX#X",
"O.O.%.O.O.&.$.B.d.B.Z.A.K.T.T.T.Y.H.C.#.+./ / / / / ) +.+.) ) ^ ( ( w.w.w.w.w.9.4.4.4.5.5.1.6.4.2.9.9.j.k.k.c.c.~.~.J.).[.XX+X$X",
") O. .O.O.O.#.d.g.C.C.Z.G.T.T.T.I.I.h.u.&.&.| | ! O.%.+.$.$.%.+.( p.p.p.y.w.y.y.4.3.3.2.3.3.5.5.j.9.9.j.z.z.c.c.~./.[..XXXOX0XrX",
") ) } O. .O.#.$.B.d.d.C.Z.H.K.I.G.G.Z.i.&.| } &.! O.$.B.S.D.Z.S.G.J.J.g.p.y.w.1.1.3.1.1.3.3.3.6.2.9.9.j.k.c.W.n.~.~.[.oX+X0XrXyX",
"} ) O.)  .X.$.i.d.i.i.d.C.G.J.I.G.G.Z.d.&.&.&.&.O.$.S.E.Y.R.R.R.|.}.}.J.n.z.y.( 1.1.<.{ { 3.3.6.j.9.9.j.k.W.!.!.~.[.OX+XwXeXpXsX",
"/ O. .O.O.O.#.i.d.u.p.i.d.C.Z.G.Z.G.G.h.&.&.&.&.S.D.R.R.:XR.|.R.|.}.J.J.J.J.n.w.U I I I 3.3.3.5.9.9.y.k.k.n.!.!./.[.+X$XeXpXdXlX",
"/ O.O.O.+.+.+.o.u.u.u.#.u.d.C.Z.Z.I.h.Z.$.$.$.$.R.S.%.$.N.Z.Z.C.G.}.}.J.n.J.n.t.U 1.1.I 3.3.3.5.9.9.j.z.c.c.~.~.[.#X+XqXiXdXlXcX",
"/ X.O.O.+.+.X.+.#.#.X.u.u.i.C.g.U.E.$.E.Y.R.-X:.E.$.! / i.G.g.g.r.w.t.s.}.OXXXn.U 1.U 3.3.3.5.6.9.y.j.k.c.n.~.~.[.XX9XiXsXjXzXnX",
"} X.O.#.#.+.X.o.o.o.X.X.+.u.g.g.Z.$.E.6X6X6X6XE.%.O.! M A Y p.a.f.r.n.t.f.n.n.b.e.4.1.3.3.3.5.7.9.9.k.k.c.c.~.~..X+XqXiXdXxXvXvX",
"O.O.#.#.+.o.X.X.o.X.X.X.X.p.p.d.$.P.>X3XR.Y.-X$.! ! C m e e F 1.y.w.~.f.w.n.t.XXn.e.3.4.7.6.5.q.9.9.t.k.k.!.~.).XX9XqXaXlXzXvXbX",
"X.+.#.#.#.X.X.X.X.| X.| ( X.p.d.A.-X6X:.} } :.} ! d i q 6 j k j 1.J w.W.z.XXt.{.[.n.4.3.7.7.7.7.9.j.j.k.c.b.~.).oX0XyXaXlXcXvXvX",
"O.+.#.#.#.X.| | | X.| | ( X.#.i.E.-X=X%.} %.%.! d s q 7 j j z c J D H y.t.XXa.~.OX`.a.8.8.7.7.5.9.j.y.k.z.W.~.).oX+XiXaXlXcXvXvX",
" .+.+.#.#.X.X.| | ..X.| ^ | X.i.P.-X:.} *.:.*.! 0 0 q 6 h 2 z c h h z D 1.j.b.{.OX%Xb.7.4.6.6.3.9.9.j.j.c.W.~.).XX+XrXiXjXxXcXvX",
" . .+.#.#.#.| | | | | | /  .o.i.-X-X:.f } } ! ) d q 5 7 h h g j h g c j 1.G z.t.{.[.{.l.{ 3.6.3.9.9.y.j.l.W.~.).XX+XrXiXsXlXzXcX",
"|  .o.&.o.o.| | ! ^ ^ +.X. .E.6X8X:.} { } f f { 0 p p e e n k j 6 6 j k n F y.J.b.{.OX/.0.5.,.5.1.2.9.9.x.Q.W.~.'..X9X0XaXaXjXjX",
"S | o.o.o.o. . .^  ./ +.#.=.>X5X:.&.} :.} f f 0 N C ! N m m M p < k n M M M w.n.XXOXqXsX].5.3.5.2.9.9.9.0.x.W.W.).'.9X9XtXtXaXkX",
"m | &.&.o. . .|  . .O.#.d. XgX8X:.} } } W f f { Q ! ! ! ! A N n k M L Y M ( p.n.n.n.v.yX].7.>.5.2.9.2.k.0.k.x.W.(.).'.9X9X9X0XtX",
"s | | | |  . .| / | +.d.E.gXnXgX:.%.:.:.} } } W _ @.@.p.p.( ( ( ( ( p.p.p.n.n.f.{.J.[ `.oX0.<.1.2.2.9.2.9.j.x.Q.~.(.'.'.#X#X#X9X",
"s S | | | | |  ./ | O.i.Z.gXhX6X*.;.*X;X;.;.:.=.N.S.S.N.N.N.p._ p.N.J.{.|. XJ.p. X4Xt.U $X4.G J 2.2.2.j.j.j.k.Q.Q.(.(.(.'.'.#X#X",
"a a S P ^ | ^ ^ ^ | &.o.#.6X8X$.~ &X;X,X;X-XR.-X:X:X:X}.}.}.}.}.}.$X$X<X<XfXfXyXmXnX4XI XXF F <.<.2.2.2.2.9.0.Q.k.Q.Q.(.'.'.'.'.",
"m a a S P | ^ | | ^  .&.&.I.R.E } ;X7X7X7X>XR.R.}.K.}.}.}.{.}.{.J.J.J.J.{.XX<XdXnXvXjXa.XX1.J 1.>.<.2.1.9.9.9.0.0.k.W.(.Q.'.(.'.",
"S s s S | ^ P ^ A A | |  .h.A.C ! V.$.d Q d > 5 ; ; 5 5 6 k k k 7 < < 4 4 7 j F n 1.z.J W.y.<.D >.<.2.2.2.9.9.0.0.0.0.Q.Q.0.(.(.",
"m C s s P | S P | ^ ! | ^ O.E.@ 0 f C C a i 5 4 4 * 8 = * < - 4 < , 2 2 < 2 ,.,.(.(.Q.j ,.2.,.G >.2.2.2.2.2.2.9.0.k.k.Q.Q.W.W.~.",
"m C a a Y | Y | V o.| ^ ! / B.> s a a i u u 7 4 * 1 2 $ - 6 < * , % % g g g z D ,.2.(.,.2.,.,.2.>.2.2.2.j.2.k.9.0.0.0.Q.k.Q.W.~.",
"V a a a V S { [ S r.A A O.X.m.s p s i 7 4 3 2 2 3 * , , 2 j 4 2 , 3 % 3 g g j z g ,.2.g ,.,.,.,.<.2.2.9.2.j.2.k.0.0.Q.k.k.Q.W.~.",
"m a a V a S { | ..[ S ! X./ B.C i i i 7 7 6 2 2 1 1 , * 2 n k < < j g % % g g g g ,.,.j ,.2.,.,.2.2.2.9.9.j.k.k.k.0.k.k.Q.Q.W.~.",
"m a a V v V { | ..P | | ^  .H.S p p i 6 7 7 4 , 1 I F = k J.n.5 < ,.,.g % % g g g ,.,.,.2.2.5.6.9.9.9.0.k.k.k.k.Q.k.k.Q.k.Q.~.~.",
"d a a V V V L ....P o. .X.R.1X! q i e 5 5 7 6 j 4 L M k r.<X1X@.< z z g g g g g g z ,.,.).J 6.1.6.9.0.k.k.Q.c.W.Q.W.W.Q.W.W.(.(.",
"a a a a S b V ..o.{ | | g.<X5XS.0 w i r 6 e k k < 5 ; N K.1X5X:Xk z j z g % g ,.,.>.1.l.$Xy.y.1.5.6.0.0.k.k.W.Q.W.W.W.~.~.(.(.'.",
"a C a a Y V v [ ....#.o.i.d. X>Xd d C N w w e r w w r _ >XgXgX1Xy.k 4 j k < g ,.1.z.j.+X[.6.J j.5.9.0.k.k.Q.Q.(.W.W.W.W.~.(.(.9X",
"a m m V L P P V s.s.[ h.h.$.U.5X>XE d d y s 9 r t 9 T K.1XgXgXgX}.Y k k k k ,.Q Y Y $XnX!.2.6.0.0.0.x.0.0.x.c.Q.^.^.(.].'.'.+X9X",
"m a v v V L P L { f.o.o.h.h.h.8XhXP.} Q y t d Q T T N.=X:X1XgXgX1XN.F Q ` N.N.N.J.4XxXbX~.c.0.Q.q.q.x.0.q.x.W.!.(.].'.'.#X+XwXeX",
"V V m n B L [ [ v s.a.o.h.G.&.8XgX;X*XP.=./ ` Q ` N.:X:XK.M.}.1XfX:XN.( N.}.}.J.}.dXmXnX~.k.9.W.x.x.Q.k.x.c.!.(.'.#X+X9X9XeXtXkX",
"S V V V V L [ ..B [ h.s.h.h.o.3X8X;XP.P.F.=.N.] ` N.K.K.] ` ` _ }.}.N.( N.K.}.}.:XfXdXnX{.c.0.W.c.c.c.c.c.Q.(.).'.+XwXeXtXaXjXzX",
"A A M M Z Z P w.[ L o.f.o.n.o.2X7X;X*XP.M.;.M.] _ ] _ ` Q Q T Q N _ N.@.N.N.J.}.1X<XdXbX/.v.v.Q.Q.Q.v.c.c.W.(.].'.9XtXtXkXzXzXcX",
"Y Y Z Z B B L { s.B { f.o.f.f.I.3X;X;X*X&X;.` ` N.N.` Q T Q Q Q t _ K.N.N.N.N.K. X<XdXnXy.l.c.0.v.v.c.c.c.v.(.).#XwXtXaXlXcXvXvX",
"w.U L Z B B B { o.{ { s.s.f.s.h.7X;X*X;.] ] ` N.&XM._ ` ` Q T _ _ _ K.K.N.] N.J.}.<XdXxX8.j.l.0.0.q.x.x.x.c.!.(.'.wXtXaXzXvXvXvX",
"p...Y L B B L { [ e.{ o.f.f.o.h.7X;X;X;.] ] ] &XN.K.N.N._ Q Q _ N._ N.K.N.N.N.N.T.1XfXuXU 3.K 7.6.0.0.0.x.c.!.].'.9XtXtXlXcXvXvX",
"{.t.[ U L B L U e.r.[ B s.s.s.| 7X*X;X;.*.*.*.' ;.&X&X] ` Q ` _ N.}.K.N._ -.i.S.:X<XdX$XI G 3.K 5.5.5.7.q.c.W.(.'.9XwXtXjXzXvXvX",
"%X~.a.e.w.U P [ e.r.[ I { e.[ | 3X;X-X;.*.*.' ~ ' ' ` T Q Q T 9 Q _ N.] =.:.M.H.K.fXxXJ.B G 3.>.3.3.5.7.0.c.v.W.'.'.9XeXaXkXzXcX",
"2X%Xn.a.r.8.{ U [ e.U [ B [ { P -X,X=XP.;.*.' E T ` T 9 9 9 9 9 9 T T T Q _ N.H.:XfXhXy.G z H ,.3.3.5.6.0.x.v.W.].].#X9XeXtXtXjX",
"pX2X[.L.z.e.[ [ [ P P [ v G { P Y.3X=X;.;.*.W T ' ] ] ` T T Q ` _ N.N.` ` _ K.:X:XfXxXL G c H ,.,.>.3.5.7.0.x.c.Q.(.].'.#X9XwXtX",
"lXpX2X].b.a.r.e.[ Z P Z b n U A &.-XP.P.;.} ~ W ' ] ` ` ` T T ` ` _ @._ Q ` @.N.}.1XyX6 n H ,.c H K 3.>.3.5.0.0.c.W.(.).'.#X#X9X",
"zXlXtX2X`.f.a.y.P b Z n Z i G Z ! R.R.:.:.} ~ ' ' ` T T T T T T R Q ] _ ! _ N.N. X XJ.b H j g ,.H K K >.3.3.6.7.q.x.v.W.(.(.].'.",
"cXcXjXrX%Xb.a.e.P B n i n n n v C S.R.V.-.} ~ *.' ] ` ` T T T T Q Q _ _ _ _ N.N.}.}.t.~.c.,.c 2.H G K >.>.2.5.5.6.0.0.c.Q.W.Q.W.",
"vXcXzXtX2XL.a.s.P S 5 p n v 5 a s  .Y.A.=.:.} :.&X&X;.] ` T E ' _ _ N.N.@.p.p.( M {.z.$X[.9X(.0.c c H H K K >.>.3.5.6.0.0.q.q.x.",
"vXvXcXlX2XU.s.o.B a V s a E.{ @ m s $.$.P.&.*.&X&X&X&X&X] ' ' ] F.K.D.N.N.( M 5 6 F <.<.1.j.^.oX2XlXpX^.D >.J I >.1.1.2.9.2.2.k.",
"vXvXcXxXsX2Xn.{ o.%X5X6XR.5XR.:.! { E.Z.$.} *.&X&X&X&X;.' ` ' ] F.D.D.N.( M e < j , h j._..XrXlXvXcXlXlXqXz I J D ,.,.<.1.j.9.k.",
"bXbXbXcXdX2X`.s.{ U.6XuX5X6X$.| 0 s O.P.:.:.*.} ;.;.*.W Q ` ` _ @.=.i./ M 5 ; , y.1.j.'.0XeXiXpX@XOX`.@XrXI J D 1.1.<.<.2.1.2.,.",
"bXbXbXcXlXwXL.[ + s u h. X6X:.} y d =.;X:.:.} W W W W f N t Q Q ! Q N w ; - = j <.9XkXyX/.c.y.{ 8.z.K K v.XXG J D H >.<.2.j.c.k.",
"vXbXcXbXvXyXL.n { [ u > s &.$.{ @ *.7X7X*X~ W E W E E d N N t M p 0 > ; - - h D ~.k.I D x x x l l l j l I [.7.6.9.1.k.W.~.XX9X9X",
"bXbXvXbXnXOXf.e.s.f.a > 8 { h.:.d 5XhX7X*X;.;.E f f t t t k k 5 ; - - - = , 2 j g 2 2 h 3 $ $ 3 j l 8.v.~.+XjX@XaXqXeXaXiXaXjXaX",
"vXbXvXbXrXL [ L.[ V + 8 + + s { R.hXhX3X;.;.%.~ T T 9 r r 5 < - X # O - * * , , , , , , , 7 l l { 8.[.@XrXrXlXsXbXjXjXnXvXnXbXxX",
"mXxXlXxXU.= l f.{ V 8 > + + + > s 6XfX8XR.V.! } W T y > ; ; = - # - = , , , % $ % % $ , , l { z._.^._.0XlXjXoXvXbXkXkXcXbXnXnXxX",
"mXdXdXsXs.i = i V V b q ; & & & 8 o > o.o.&.| W C s q @ + 8 + o - $ , , # $ $ $ $ % g { oX{ q.q.@XL.oXrXzXsX].zXvXlXsXsXdXlXzXxX",
"dXuXuX X^ e > ; + & ; 5 7 ; & O o * + o O a &.&.&.&.o.| s O o o , < , , $ , % $ 3 3 c v.9X{ 8.].].].].`.2XpX].tXpXtXwX@XyXdXdXsX",
"8X5X4X|.u.C m s 5 > + O + & & 8 $ o o o o O s &. . .C 0 + o + u * * * * $ , g x g { q.q.q.{ q.v.@X_.q.v.].lXq.Q.tXtXOXv.$XxXbXbX",
"6XI.R.R.I./  .O.C s 0 ; + X X   o o o o O o + s #.d.{ + + + o o $ # $ 2 D 3.I c 8.Q.Q.{ 5.q.rX].iX_.q.v.v.rXq.q.].2X%Xb.yXnXbXbX",
"6XP.R.6X>XV.P.:XS.+.N r > ; : & 8 8 o + > + : a #.| 5 + + 4 1 $ $ l D { z G j.L.v.{ D 3.v.2XrX^.XXv.j.j.5.q.q.].OXpXpXsXnXbXbXbX",
"3X-X-XP.E.=.E.P.R.i.d w d A ! M V a > > a 0 0 +.6Xo.i 8 & $ 1 3 G x l D { l.z.q.D l { q.oX@X_.v.j.z.c.3.{ q.].].rXpXsXjXcXbXbXbX",
"-XP.:.:.f f f R ! Q N ! ^ ( A v s &.S @ s f d O.C.> O 4 , $ 3 l l x { 3.8.[ I x l { ].2XoX`.^.z.j.c.v.I q.v.]._.%XwXaXmXnXbXbXbX",
"-X-X-XP.W f y f d R ! ! ! ! A C | &.| ! } s d >X|.w - ; $ 3 D c G { { { D x D n { l.2X2X].v.7.8.7.b.v.6.q.q.v.oX].@XaXnXnXbXbXnX"
};
