/* XPM */
static char *_7c89e13b35e4349deed22d9605de7cfg25V50tcgdgevMQh[] = {
/* columns rows colors chars-per-pixel */
"64 64 193 2 ",
"   c #060604",
".  c #080705",
"X  c #070803",
"o  c #090A06",
"O  c #0D0D0A",
"+  c #100600",
"@  c #130D05",
"#  c #110F0B",
"$  c #0F100B",
"%  c #141006",
"&  c #191207",
"*  c #12120D",
"=  c #1A150D",
"-  c #1C190F",
";  c #110F10",
":  c #151511",
">  c #191612",
",  c #171813",
"<  c #1B1915",
"1  c #1D1B18",
"2  c #20170E",
"3  c #221A0F",
"4  c #221D15",
"5  c #211D1A",
"6  c #25211B",
"7  c #2A241C",
"8  c #2E291D",
"9  c #272115",
"0  c #30291F",
"q  c #2C2822",
"w  c #332D23",
"e  c #342F28",
"r  c #3A3226",
"t  c #3B332C",
"y  c #3D3731",
"u  c #43362B",
"i  c #43392D",
"p  c #433826",
"a  c #443C33",
"s  c #493F35",
"d  c #443F39",
"f  c #464036",
"g  c #4B4235",
"h  c #47413B",
"j  c #4C443B",
"k  c #4E493E",
"l  c #504835",
"z  c #50473C",
"x  c #52493C",
"c  c #524636",
"v  c #57503E",
"b  c #5A513F",
"n  c #4F4440",
"m  c #4E4A41",
"M  c #544D43",
"N  c #584E43",
"B  c #564C4A",
"V  c #594E48",
"C  c #504541",
"Z  c #5C5244",
"A  c #5C544B",
"S  c #5E584F",
"D  c #5F5C53",
"F  c #615847",
"G  c #61574B",
"H  c #635B4C",
"J  c #685C4D",
"K  c #605543",
"L  c #695D52",
"P  c #605F5A",
"I  c #635C54",
"U  c #69604F",
"Y  c #6C6253",
"T  c #6E665B",
"R  c #6E6A5F",
"E  c #726655",
"W  c #756A56",
"Q  c #71675A",
"!  c #756B5B",
"~  c #7A6E5C",
"^  c #786954",
"/  c #7C715E",
"(  c #6D6B64",
")  c #796E62",
"_  c #776D63",
"`  c #7C7262",
"'  c #7C7469",
"]  c #7E796D",
"[  c #827565",
"{  c #857A67",
"}  c #82766C",
"|  c #857B6C",
" . c #8A7E6C",
".. c #877E71",
"X. c #8A7E72",
"o. c #8D816D",
"O. c #91846E",
"+. c #878070",
"@. c #8D8373",
"#. c #8F8876",
"$. c #8F8878",
"%. c #8E867B",
"&. c #938673",
"*. c #968974",
"=. c #9A8B75",
"-. c #958B7B",
";. c #9A8D7B",
":. c #9D917D",
">. c #A3947E",
",. c #968C81",
"<. c #998F80",
"1. c #9D9383",
"2. c #9E9589",
"3. c #9F9888",
"4. c #9F9983",
"5. c #A39582",
"6. c #A69985",
"7. c #AB9C85",
"8. c #A59A89",
"9. c #AB9E8A",
"0. c #A69786",
"q. c #B19E86",
"w. c #B09F89",
"e. c #A79C92",
"r. c #AFA187",
"t. c #AEA18C",
"y. c #B1A187",
"u. c #B4A48C",
"i. c #B8A68E",
"p. c #B7A98F",
"a. c #B9A98F",
"s. c #ADA392",
"d. c #B4A592",
"f. c #B9A792",
"g. c #B5AA94",
"h. c #BBAB93",
"j. c #B5AA98",
"k. c #BCAE9A",
"l. c #B4A699",
"z. c #BEB19B",
"x. c #BDB1A2",
"c. c #C0AF96",
"v. c #C1AF9A",
"b. c #C2B197",
"n. c #C3B39D",
"m. c #C5B6A0",
"M. c #C7B9A3",
"N. c #CBBBA5",
"B. c #CCBEAA",
"V. c #CFC1A7",
"C. c #CEC2AB",
"Z. c #D3C4AC",
"A. c #D2C8AF",
"S. c #CEC1B0",
"D. c #D5C6B1",
"F. c #D6CAB3",
"G. c #DCCCB5",
"H. c #DECFB9",
"J. c #D8C7B3",
"K. c #DED1BB",
"L. c #E0CEB6",
"P. c #E0CFBB",
"I. c #E0D0B7",
"U. c #E3D3BC",
"Y. c #E9D7BF",
"T. c #E7D9BF",
"R. c #E8D8BF",
"E. c #DED1C0",
"W. c #E5D6C1",
"Q. c #E8D7C5",
"!. c #E6D9C3",
"~. c #EBDBC4",
"^. c #E7DBCA",
"/. c #EDDEC9",
"(. c #F2DDC5",
"). c #F0DEC9",
"_. c #EEE0C6",
"`. c #EEE1CB",
"'. c #F0E0C7",
"]. c #F2E2CB",
"[. c #F6E8CE",
"{. c #EFE3D2",
"}. c #F5E5D1",
"|. c #F8E7D2",
" X c #F6EAD3",
".X c #FAEBD4",
"XX c #F7ECD8",
"oX c #FDEED9",
"OX c #FEF1D6",
"+X c #FFF3DC",
"@X c #FFF8DF",
"#X c #FFF4E1",
"$X c #FFF8E2",
/* pixels */
"i.i.i.i.h.h.h.h.n.b.b.b.h.h.b.h.f.c.c.c.c.i.c.f.c.i.f.c.h.h.h.h.h.h.h.h.h.h.h.h.h.f.h.h.h.h.h.h.f.i.i.i.u.p.p.a.u.f.a.h.a.a.a.a.",
"u.i.a.a.a.a.h.b.h.b.c.b.h.b.h.h.c.c.i.c.i.c.i.c.a.c.a.a.a.h.a.a.a.h.f.p.f.f.f.g.a.f.f.f.p.p.u.p.i.u.u.u.p.p.u.p.a.h.f.i.u.u.u.a.",
"u.d.f.f.f.p.f.a.a.h.h.b.h.h.h.h.a.a.f.a.i.a.u.a.a.a.u.a.a.u.a.u.a.a.p.i.i.i.a.i.p.u.p.u.u.p.u.y.i.u.u.i.u.u.u.p.d.9.u.u.a.u.y.y.",
"p.u.u.p.d.g.g.d.a.a.h.a.h.h.h.h.c.h.a.f.u.a.f.a.i.u.u.u.y.u.u.u.u.u.u.u.u.u.i.u.u.a.u.u.u.u.u.u.u.u.u.u.u.t.d.r.i.i.d.w.u.u.u.a.",
"u.d.f.f.d.u.u.u.q.q.i.u.u.i.i.y.i.i.i.w.w.u.i.i.u.u.i.u.u.9.t.u.u.u.u.u.r.u.u.u.u.u.u.u.y.t.r.r.r.r.r.r.r.r.t.t.u.t.u.u.u.u.y.u.",
"i.i.a.a.d.w.9.9.q.q.q.q.>.i.i.>.w.q.7.7.7.w.9.w.q.q.w.w.9.u.u.u.t.t.9.u.r.r.t.t.7.7.7.7.7.7.7.7.7.5.:.r.r.r.t.t.6.7.7.7.y.y.y.q.",
"a.i.y.y.u.u.u.u.u.w.y.y.y.y.y.i.w.w.u.q.u.q.w.u.u.w.u.i.i.i.i.u.u.u.u.u.p.p.u.g.u.d.u.u.u.u.u.r.u.u.u.s.s.g.j.g.t.j.u.u.y.y.u.q.",
"y.u.i.u.t.0.:.;.;.;.:.=.=.=.=.=.=.=.*.*.&.&.&.&.&.&.&.O.O.o.o.o. .o.{ { [ ` [ / ~ / ~ W E Y E U U U U H S H H F F b K O.7.>.y.7.",
"t.t.t.l.F 7 7 7 8 7 7 7 6 6 9 6 4 7 4 4 4 4 4 4 4 4 < 4 - < - < < - = = = * = & % % * % & $ % % @ @ @ @ @ @ @ # % & + u t.7.7.5.",
"u.d.s.s.i = 4 4 1 1 , , > , , , > > > < < < > , < , , , < , , , , , , * : : , : , : : * * * * * * > : ; > * > : = 3 @ c l.8.9.0.",
"t.u.t.g.g - 4 , , , , : : : , , : > > > > > > , , * , : , , : : , : * * : * * * * * * $ @ * * * # ; ; ; ; ; $ $ * = @ G s.0.7.5.",
"u.r.t.g.H - < , , : : : ; : : : * : : > > > > > , = , * * * : : : : * * * O $ O * O O O O O O O O # O O ; ; $ $ * = @ ~ s.7.7.>.",
"y.y.9.d.Q & , : : : O : $ $ $ : * * : : : * * : * * * * $ $ $ ; : * * O $ O O $ O o O o O O o O O O O O ; $ $ $ % & = +.9.7.0.>.",
"q.q.7.j.} = < = ; ; : $ ; $ $ $ * * * : : : * * * * $ $ $ $ $ $ # O O O O O O o o o o o o o X o . + o o o o $ $ $ % 9 1.8.7.>.>.",
"u.t.7.s.%.4 , : : ; # ; * * $ O $ $ * $ $ $ $ $ $ $ $ $ $ $ $ O O $ $ O O O o o o X o o o o O O X O O O O O $ * * % t 8.0.9.7.>.",
"7.7.9.9.2.6 : , : : * * * * O O O $ $ * $ $ $ $ $ $ $ $ $ o o O O o o o . O o o X o O O o o O $ @ # O @ $ $ : * * & s e.0.7.7.>.",
"7.6.7.t.8.w = , ; ; # # # # O O $ O o $ $ $ $ $   O   . . . . . X X   o o o X o X X X X o o o o O X O $ O $ ; # > + I 9.5.5.0.5.",
"6.7.r.6.8.f % , , > > : : = ; : * $ $ o o o X X               .       X o $ O O $ $ $ O O O O O $ # % * $ : , , , & ! 9.0.5.5.>.",
">.5.7.>.t.Z O - , > : * # * : : : $ O X X X X X                     o o o O o o o o X O o O O $ O $ $ $ # # : : > 3 X.0.5.>.>.>.",
"&.5.>.5.8.U % < , > > : = # ; : : $ o o X X o o                       o O O O O X X X X X O ; ; * * : * : : , < : 4 ;.5.>.>.>.>.",
"E 5.:.1.4._ % < , < , : : ; : ; ; O O .                               o o O O O $ O $ O ; ; ; : * , * - , , 1 < * r 3.:.5.>.=.>.",
"l :.1.1.4.+.- , : : O : $ $ $ O O O O . o                                       X o o X o o o . o o O O O $ * * # f 8.:.>.>.;.:.",
"i o.8.4.3.:.9 $ * * $ o O o O .   . . .       o                                     X X         o . X o o o * * @ A 5.:.>.=.;.;.",
"0 H 1.4.1.3.e % * * $ O O O . . . O . . o                                         X X X   o . . o o o O $ $ $ % @ Q 7.=.>.=.=.>.",
"w g o.;.*.2.h @ : : O O O O O O o o   o o o   o                             .                 o o O o o $ O # > = ..;.;.;.=.=.=.",
"0 t ` -.@.;.x * : : : # * O O O O o O   o o                                                 o o o O O o O * @ * 7 X.;.=.;.=.=.=.",
"w w U -.#.-.S % : : ; O # O O O O o o   o o o o                         .         o     o   o o O O O O O * * & w %.*.&.*.=.=.*.",
"e 0 k @.&.-.! = : : : : * O ; O ; ; O O o o o o   O     o   o o         .   . .     O   o o o O O . $ $ $ * * @ a -.$.&.*.=.&.=.",
"y q r W *.&.] 4 > : : ; : ; O $ O O $ O o O o o O O o o o o o o o   o o . . . O . O . o O . O O O O O # # * = & V ,.&.X.*.*.O.=.",
"( D k U &.#.+.8 < , , : : : : # ; ; $ $ O O $ $ o O O o o o o o o o O o O . O   O . O O O O O O ; O O # * * = * L ;.&.;.=.*.X.=.",
"P ( T W ;.&.%.t < < 1 , : > : : ; $ $ $ $ $ $ $ O O O O ; o O O ; o O O O O O   O O O O O O O $ # O # * = * : 5 ' <.;.5.=.=.=.=.",
"S ( R W ;.;.-.f 4 1 1 < , , , : : : : $ $ $ $ $ ; ; ; ; ; O ; O O ; ; O O ; O O O O ; ; $ O $ * ; : * : : : 2 7 ,.0.0.>.=.X.=.X.",
".. .@.` @.4.8.I 1 1 1 1 1 < < , , , , > * , * * * : : $ , * $ * ; O ; : $ $ $ $ * * $ * * * : # : : ; : > 2 > u 2.,.5.:.o.o.O.O.",
"' { { [ 5.u.l.( 7 q q 5 5 1 1 , , < , < < , 1 , , , : > , , , , , , , , , : , , * , , , , , > , 1 , 5 5 4 7 2 A x.l.j.7.>.=.>.=.",
"C.J.J.J.K.K.E.s.0 8 q q q q 7 7 7 6 5 5 6 5 5 5 5 5 1 5 , 4 < 1 1 1 1 < , 1 , 1 1 1 < < < 4 1 5 4 < 1 5 4 7 < | ^.G.H.D.Z.J.J.L.",
"^.^.^._.^.`.}.F.t e w w 8 8 0 8 w w w w e e e e t e t t e t t y y t y y a a y a y a y a a h d s s j s j x x x l.^.U.W.G.J.J.U.U.",
"Q.~.W.W.~.~.~.U.=.+.@.@.@.%.@.#.&.&.%.-.*.-.,.-.-.;.,.,.3.1.1.:.,.0.<.2.,.;.%.-.-.*.$.#.#.#.&.&.*.-.-.:.-.1.;.H./.Y.Y.L.H.K.^./.",
"W.W.~.~.R.R.~.~.z.d.s.s.s.d.e.9.9.9.9.7.7.8.8.0.0.6.8.t.1.8.<.t ` 0.5.5.5.;.;.;.&.&.@.O.O.O.&.*.&.@.*.&.;.;.5.K.f.7.6.6.t.u.h.j.",
"Y.U.Y.Y.U.R.T.K.z.t.t.8.t.t.7.t.0.9.0.9.6.7.7.6.8.t.8.t.t.t.8. .;.l.9.8.8.0.5.;.;.*.&.&.&.O.O.O.&.*.*.=.=.;.u.!.:.^ ^ ~ ` W E } ",
"L.U.U.U.Y.U.U.K.C.z.j.j.h.h.h.h.c.h.h.h.h.k.k.z.z.t.0.6.-.-.-.:.&.@.&.*.&.7.d.d.z.h.h.n.n.M.N.N.N.V.N.A.h.h.G.K.h.^ E ) W J Q d.",
"U.H.U.U.U.U.J.I.U.K.G.G.A.Z.N.N.B.B.N.M.M.M.x.n.z.>.+.[ [ W / W W W W / [ =.r.g.z.M.N.V.N.B.B.J.G.G.G.J.J.B.C.J.m.! E Y L Q ! 8.",
"U.U.U.K.T.J.I.I.H.F.A.V.N.n.n.b.v.f.g.d.t.7.5.6.:.{ / / / W W W Q W ~ ` / +.-.:.5.r.u.h.c.c.n.b.h.n.n.N.N.n.m.N.B.@.L Q ` ) _ ,.",
"Y.Y.U.U.G.J.T.I.H.C.z.d.u.u.r.6.5.:.;.*.&.&.@.@. ./ / ! E W W Q ! W ! / _ /  .{ X.=.&.;.5.0.w.7.7.7.u.u.f.h.k.h.B.e.! ! ) X...,.",
"~.!.!.Y.G.W.Y.Y.T.F.M.z.h.z.f.g.j.l.h.j.g.j.j.j.d.-.@.&.o.o.&.&.#.#.-.-.-.:.t.k.f.j.k.v.v.v.N.M.N.N.B.Z.N.V.B.Z.H.B.} [ X. .} } ",
"/./.(.P./.].].}.}.[.`.[.[.}.|.XX X X XXX X X.X X.XW.F.F.G.F.G.J.F.F.A.C.C.F./..X|.[.[..X.X~.].oX|.}.].|.].'.(.~.Q.^.5.) &.) ~ ~ ",
"].).Y.~.|.|..XoXOX+X$X@X@X@X+X+X@X+X+X+X@X@X+X@X+X$X@X+XOX|. X~._.[.].[.OXOXOXoXOXOXoXoX.X[.[.OXOXoX.X.X.X[.[.].)..XP.m.j.d.7.0.",
"'./.~.|.|.|.oXOX+X+XOX+X+X$X$X$X+X@X+X$X@X@X+X@XXX.X}.'.`.~.]..X XoX.XoXoX.XoX.X.X.X.X.XOXoX/..X|.oXoX[.'./.).|.}.oX).}.~.(.~.W.",
"~.R.].|.oXoXoXOXXXOX@X+X+XoXoX+X+XOX+XoXoXoXoXoX}.`._./.}.XX|..X X X}.|.|.}.[.[.}.}..X}.[.}./.+X#X#XoX|.XX.XoXoX#X#XoXY.~.U.Z.B.",
"R.[.[..X.XoXoX.XOXOX.XoXOX.XOXoXOXoX.X|.|.OX|.(.~.}.|.[.[.|.].[.|.].].].].].].]. X`.:.E @.` ` ] | X.<.2.-.-.3.e.e.l.^.XXQ.'.R.I.",
"[.|.|..X[.oX.X.X|.oX|.oXoX.XoX[..X|.|..X|.|.'.T.'.}.[.|.].].].[.].].).].].).].).^.XX{ A N f a a s u s N e j f h j a o.OX_.Q.'.~.",
"[.|.|.[.|..X].'.].'.'.'.].'.].(.'._.~.~._.~.Q.T.~.R.Y.!.T.Q.Y.Y.Y.U.U.I.U.L.L.L.).}.0.g k x j k k } s.5.+.v A V V N b U.OX~.T.|.",
"].[.|.|.|.].U.H.I.U.H.H.H.G.H.H.I.H.G.G.G.H.G.G.H.J.J.U.J.H.H.J.L.L.G.G.G.J.J.J.J.E.8.i x j h n a x.$X!.+Xg.k C V V l h.OX[.'.~.",
"].].].].].~.H.H.I.H.H.J.G.H.G.H.G.G.H.G.G.G.G.G.H.G.I.Y.H.H.U.U.L.P.H.L.J.L.J.L.S.}.x.s j j k h u -.XX`.{.{.L n B A x ` OXXX X}.",
"~.~./././.Y.U.Y.H.H.L.L.L.L.G.G.G.G.G.G.G.G.G.H.L.G.H.I.J.H.I.L.L.P.H.H.L.L.J.J.E.^.D.z k h d m y _  X`._. X..k B B M v H.XX{.}.",
"W.~.~.(./.G.U.L.G.G.I.H.H.I.G.J.G.G.G.A.G.G.H.H.H.G.A.J.Z.D.J.G.K.K.U.H.L.J.G.G.J.Q.E.G a m h h a A !.`.[.+X8.j B M M k 0.}.}./.",
"~.~.Y.~.R.J.I.T.I.G.I.G.G.G.G.G.G.H.H.G.G.H.G.G.H.U.T.L.A.A.G.I.K.H.H.H.L.G.G.G.G.Q.^.T f k h h j j F.{._.@XS.j C m M x Y Q.).W.",
"R.R.R.'.I.L.U.L.U.L.G.L.G.H.H.J.G.G.G.G.G.A.H.H.G.U.U.H.D.A.A.H.K.K.H.U.I.G.L.U.U.W.{.} a k f k z s -.{.^..Xz.j S S m M k z.~.U.",
"'.'.'.'.U.U.R.U.Q.Y.~.R.R.(.~.~.Q.~.R.~.Q.T.~.~.W.Y.U.U.L.H.H.H.K.K.U.U.I.G.L.L.D.K.^.1.s V M k B z C } 9.1.J Z ] ] I A g o.!.U.",
"'.'.'.'.U.Z.V.V.Z.N.Z.N.N.N.n.N.n.n.n.n.n.n.n.n.n.n.v.n.b.n.n.z.m.z.n.n.n.n.c.c.n.U.{.z.g i a a s s s s i s g x M M k B c Z G.Q.",
"'.[.'.[.Y.Z.V.J.Z.A.D.D.J.Z.J.J.J.G.H.H.I.H.I.I.U.U.U.U.U.Y.Y.T.W.!.Q.Q.(.Y.R.U.~.Y.!.K.u.*.@.@...} | } } [ ! ~ Q Y L Y J F V.].",
"R.'.'.'.].[.].[.|.].].[.].'.].].].].).'.'.(.].'./.'.'.'././.'.'./._././.(.~.(./.~.!.Q.~./.`.^.~.{.^.^.Q.W.!.^.U.!.W.W.U.W.U.Q.~.",
"[.].'.'.'.'.'.~.).~.]./.'.'./.'.'./././././././././.'./.)./.(./.~./.(./.~.~.~.Q._.T.Q.R.U.Y.W.T.P.W.W.W.U.T.W.!.U.Q.W.~.~./.R._.",
"'.'.'.[.'.'.'.].[./.[./.).].'.'.]./.'./._.)./.'.].'.'./.]./.'./.(.(.).)._.(.~.~.~.~.~.~.T.~.Q.Y.~.R.Y.Y.T.Q.~.Q.~.~.~.(.(.(.~.(.",
"'.'.].R.(.].].'.'.).).].'.'.[.'.'.].].].].'./.].].'.'.'.].].'.).'._.).)._./._.(._.'.R.R.~.Q.R.R.Y.R.Q.U./.Y.Q./.~.(.(.(.(.(.].'."
};
